<?xml version="1.0" standalone="no"?>
<!DOCTYPE svg PUBLIC "-//W3C//DTD SVG 1.1//EN" "http://www.w3.org/Graphics/SVG/1.1/DTD/svg11.dtd" >
<svg xmlns="http://www.w3.org/2000/svg">
<metadata>Generated by IcoMoon</metadata>
<defs>
<font id="icomoon" horiz-adv-x="1024">
<font-face units-per-em="1024" ascent="896" descent="-128" />
<missing-glyph horiz-adv-x="1024" />
<glyph unicode="&#x20;" d="" />
<glyph unicode="&#x78;" glyph-name="x" horiz-adv-x="1001" d="M281 543q-27-1-53-1h-83q-18 0-36.5-6t-32.5-18.5-23-32-9-45.5v-76h912v41q0 16-0.5 30t-0.5 18q0 13-5 29t-17 29.5-31.5 22.5-49.5 9h-133v-97h-438v97zM955 310v-52q0-23 0.5-52t0.5-58-10.5-47.5-26-30-33-16-31.5-4.5q-14-1-29.5-0.5t-29.5 0.5h-32l-45 128h-439l-44-128h-63q-20 0-45 1-25 0-41 9.5t-25.5 23-13.5 29.5-4 30v167h911zM163 247q-12 0-21-8.5t-9-21.5 9-21.5 21-8.5q13 0 22 8.5t9 21.5-9 21.5-22 8.5zM316 123q-8-26-14-48-5-19-10.5-37t-7.5-25-3-15 1-14.5 9.5-10.5 21.5-4h365q23 0 34 12t2 38q-5 13-9.5 30.5t-9.5 34.5q-5 19-11 39h-368zM336 498v228q0 11 2.5 23t10 21.5 20.5 15.5 34 6h188q31 0 51.5-14.5t20.5-52.5v-227h-327z" />
<glyph unicode="&#xe000;" glyph-name="eye" d="M512 768q69.667 0 135.5-21.167t115.5-55 93.5-74.833 73.667-82 51.667-74.833 32.167-54.833l10-21.333q-2.333-5-6.333-13.5t-18.833-34.667-31.667-51.667-44.333-60-56.833-64.333-69.5-60.167-82.333-51.5-94.833-34.667-107.333-13.5q-69.667 0-135.5 21.167t-115.5 54.833-93.5 74.333-73.667 81.5-51.667 74.5-32.167 55l-10 21q2.333 5 6.333 13.5t18.833 34.833 31.667 51.833 44.333 60.333 56.833 64.667 69.5 60.333 82.333 51.833 94.833 34.833 107.333 13.5zM512 682.667q-46.667 0-91.667-12.333t-81.167-31.833-70.667-47.167-59.667-54.5-48.833-57.667-37.667-52.833-26.333-44q12.333-21.667 26.333-43.5t37.667-52.333 48.833-57 59.667-53.833 70.667-46.667 81.167-31.5 91.667-12.167 91.667 12.333 81.167 31.667 70.667 46.833 59.667 54.167 48.833 57.333 37.667 52.667 26.333 43.667q-12.333 21.667-26.333 43.667t-37.667 52.667-48.833 57.333-59.667 54.167-70.667 46.833-81.167 31.667-91.667 12.333zM512 554.667q70.667 0 120.667-50t50-120.667-50-120.667-120.667-50-120.667 50-50 120.667 50 120.667 120.667 50zM512 469.333q-35.333 0-60.333-25t-25-60.333 25-60.333 60.333-25 60.333 25 25 60.333-25 60.333-60.333 25z" />
<glyph unicode="&#xe001;" glyph-name="paper-clip" d="M674 896q41.667 0 80-15.667 40-16 70.667-46.667 31-31.333 46.667-70.333 15.333-37.667 15.333-80t-15.333-80q-15.667-39-46.667-70.333l-392.667-392.667q-18-18-42.667-28.333-24-9.333-48-9.333t-48 9.333q-24.667 10.333-42.667 28.333-18.667 18.667-28 42.333-9.333 22.667-9.333 48 0 25.667 9.333 48.333 9.333 23.333 28 42.333l362.333 362q12.667 12.667 30.333 12.667 17.333 0 30-12.667t12.667-30q0-17.667-12.667-30.333l-362.333-362q-12.333-12.333-12.333-30.333 0-17.667 12.333-30 13.333-12.667 30.333-12.667t30.333 12.667l392.667 392.667q37 37 37 90t-37 90q-38 37.333-90.333 37.333-52.667 0-90-37.333l-393.667-391.667q-30.667-30.667-46.667-70.667-15.667-38.333-15.667-80.333 0-41.333 15.667-80.333 16-39.667 46.667-70.333 31.667-31.333 70.667-47t80.333-15.667 80.333 15.667 70.667 47l392 392q12.667 12.667 30.333 12.667 17.333 0 30-12.667t12.667-30q0-17.667-12.667-30.333l-392-392q-43-43-99-65.667-53.333-22-112.333-22-58.667 0-112.333 22-56 22.667-99 65.667-42.667 42.667-65.333 98.667-22 54-22 112.333 0 58.667 22 112.333 22.333 55.333 65.333 99h0.333l393.333 391.667q30.667 30.667 70.333 46.667 39 15.667 80 15.667z" />
<glyph unicode="&#xe002;" glyph-name="mail" d="M170.667 768h682.667q53 0 90.5-37.5t37.5-90.5v-512q0-53-37.5-90.5t-90.5-37.5h-682.667q-53 0-90.5 37.5t-37.5 90.5v512q0 53 37.5 90.5t90.5 37.5zM896 128v466l-357.333-286q-11.333-9.333-26.667-9.333t-26.667 9.333l-357.333 286v-466q0-17.667 12.5-30.167t30.167-12.5h682.667q17.667 0 30.167 12.5t12.5 30.167zM853.333 682.667h-682.667q-6.333 0-14-2.333l355.333-284.333 355.333 284.333q-7.667 2.333-14 2.333z" />
<glyph unicode="&#xe003;" glyph-name="toggle" d="M341.333 725.333h341.333q69.333 0 132.5-27t109-72.833 72.833-109 27-132.5-27-132.5-72.833-109-109-72.833-132.5-27h-341.333q-69.333 0-132.5 27t-109 72.833-72.833 109-27 132.5 27 132.5 72.833 109 109 72.833 132.5 27zM341.333 554.667q70.667 0 120.667-50t50-120.667-50-120.667-120.667-50-120.667 50-50 120.667 50 120.667 120.667 50zM341.333 469.333q-35.333 0-60.333-25t-25-60.333 25-60.333 60.333-25 60.333 25 25 60.333-25 60.333-60.333 25zM682.667 640h-341.333q-69.667 0-128.5-34.333t-93.167-93.167-34.333-128.5 34.333-128.5 93.167-93.167 128.5-34.333h341.333q69.667 0 128.5 34.333t93.167 93.167 34.333 128.5-34.333 128.5-93.167 93.167-128.5 34.333z" />
<glyph unicode="&#xe004;" glyph-name="layout" d="M170.667 853.333h682.667q53 0 90.5-37.5t37.5-90.5v-682.667q0-53-37.5-90.5t-90.5-37.5h-682.667q-53 0-90.5 37.5t-37.5 90.5v682.667q0 53 37.5 90.5t90.5 37.5zM341.333 0v512h-213.333v-469.333q0-17.667 12.5-30.167t30.167-12.5h170.667zM896 42.667v469.333h-469.333v-512h426.667q17.667 0 30.167 12.5t12.5 30.167zM853.333 768h-682.667q-17.667 0-30.167-12.5t-12.5-30.167v-128h768v128q0 17.667-12.5 30.167t-30.167 12.5z" />
<glyph unicode="&#xe005;" glyph-name="link" d="M725.333 853.333q50.333 0 97.167-19t83.833-56 56-83.833 19-97.167q0-50-19.167-97.167t-55.833-83.833l-128-128q-3.667-3.667-11-10.333-35.667-31.667-79.667-48.167t-90.333-16.5q-58.333 0-110.333 25-39 18.333-70.667 50t-50 70.667q25 25 60.333 25 12.333 0 25-3.667 21.667-35 56.667-56.667 41-25 89-25 33.333 0 64.667 12.667t56 37.333l128 128q24.667 24.667 37.333 56t12.667 64.667-12.667 64.667-37.333 56-56 37.333-64.667 12.667-64.667-12.667-56-37.333l-89.667-89.667q-42.667 11.667-88.333 11.667-7.333 0-20.667-0.667 6.667 7.333 10.333 11l128 128q36.667 36.667 83.833 55.833t97.167 19.167zM426.667 554.667q58.333 0 110.333-25 39-18.333 70.667-50t50-70.667q-25-25-60.333-25-12.333 0-25 3.667-21.667 35-56.667 56.667-41 25-89 25-33.333 0-64.667-12.667t-56-37.333l-128-128q-24.667-24.667-37.333-56t-12.667-64.667 12.667-64.667 37.333-56 56-37.333 64.667-12.667 64.667 12.667 56 37.333l89.667 89.667q42.667-11.667 88.333-11.667 7.333 0 20.667 0.667-6.667-7.333-10.333-11l-128-128q-37-37-83.833-56t-97.167-19q-50 0-97.167 19.167t-83.833 55.833q-37 37-56 83.833t-19 97.167 19 97.167 56 83.833l128 128q3.667 3.667 11 10.333 35.667 31.667 79.667 48.167t90.333 16.5z" />
<glyph unicode="&#xe006;" glyph-name="bell" d="M512 853.333q55 0 104-17.833t87-49.167 68.333-74.5 50.5-93.333 31.5-106.5q33.667-169 71.5-267.167t99.167-159.5h-391.333q7.333-21 7.333-42.667 0-53-37.5-90.5t-90.5-37.5-90.5 37.5-37.5 90.5q0 21.667 7.333 42.667h-391.333q61.333 61.333 99.167 159.5t71.5 267.167q11.333 56.333 31.5 106.5t50.5 93.333 68.333 74.5 87 49.167 104 17.833zM512 85.333q-17.667 0-30.167-12.5t-12.5-30.167 12.5-30.167 30.167-12.5 30.167 12.5 12.5 30.167-12.5 30.167-30.167 12.5zM512 768q-38.667 0-72.833-12t-58.5-30.667-45.167-44.833-33.833-50.833-23.5-52.667-15.5-46.167-8.333-35.5q-42.667-215-94-324.667h703.333q-51.333 109.667-94 324.667-3.333 17.333-8.333 35.5t-15.5 46.167-23.5 52.667-33.833 50.833-45.167 44.833-58.5 30.667-72.833 12z" />
<glyph unicode="&#xe007;" glyph-name="lock" d="M512 853.333q69.667 0 128.5-34.333t93.167-93.167 34.333-128.5v-170.667h85.333q53 0 90.5-37.5t37.5-90.5v-256q0-53-37.5-90.5t-90.5-37.5h-682.667q-53 0-90.5 37.5t-37.5 90.5v256q0 53 37.5 90.5t90.5 37.5h85.333v170.667q0 69.667 34.333 128.5t93.167 93.167 128.5 34.333zM853.333 341.333h-682.667q-17.667 0-30.167-12.5t-12.5-30.167v-256q0-17.667 12.5-30.167t30.167-12.5h682.667q17.667 0 30.167 12.5t12.5 30.167v256q0 17.667-12.5 30.167t-30.167 12.5zM512 768q-70.667 0-120.667-50t-50-120.667v-170.667h341.333v170.667q0 70.667-50 120.667t-120.667 50z" />
<glyph unicode="&#xe008;" glyph-name="unlock" d="M512 853.333q69.667 0 128.5-34.333t93.167-93.167 34.333-128.5v-42.667q0-17.667-12.5-30.167t-30.167-12.5-30.167 12.5-12.5 30.167v42.667q0 70.667-50 120.667t-120.667 50-120.667-50-50-120.667v-170.667h512q53 0 90.5-37.5t37.5-90.5v-256q0-53-37.5-90.5t-90.5-37.5h-682.667q-53 0-90.5 37.5t-37.5 90.5v256q0 53 37.5 90.5t90.5 37.5h85.333v170.667q0 69.667 34.333 128.5t93.167 93.167 128.5 34.333zM853.333 341.333h-682.667q-17.667 0-30.167-12.5t-12.5-30.167v-256q0-17.667 12.5-30.167t30.167-12.5h682.667q17.667 0 30.167 12.5t12.5 30.167v256q0 17.667-12.5 30.167t-30.167 12.5z" />
<glyph unicode="&#xe009;" glyph-name="ribbon" d="M298.667 853.333h426.667q53 0 90.5-37.5t37.5-90.5v-810.667l-341.333 256-341.333-256v810.667q0 53 37.5 90.5t90.5 37.5zM725.333 768h-426.667q-17.667 0-30.167-12.5t-12.5-30.167v-640l256 192 256-192v640q0 17.667-12.5 30.167t-30.167 12.5z" />
<glyph unicode="&#xe010;" glyph-name="image" d="M170.667 853.333h682.667q53 0 90.5-37.5t37.5-90.5v-682.667q0-53-37.5-90.5t-90.5-37.5h-682.667q-53 0-90.5 37.5t-37.5 90.5v682.667q0 53 37.5 90.5t90.5 37.5zM896 153l-213.333 213.333-366.333-366.333h537q17.667 0 30.167 12.5t12.5 30.167v110.333zM853.333 768h-682.667q-17.667 0-30.167-12.5t-12.5-30.167v-682.667q0-17.667 12.5-30.167t30.167-12.5h25l487 487 213.333-213.333v451.667q0 17.667-12.5 30.167t-30.167 12.5zM341.333 682.667q53 0 90.5-37.5t37.5-90.5-37.5-90.5-90.5-37.5-90.5 37.5-37.5 90.5 37.5 90.5 90.5 37.5zM341.333 597.333q-17.667 0-30.167-12.5t-12.5-30.167 12.5-30.167 30.167-12.5 30.167 12.5 12.5 30.167-12.5 30.167-30.167 12.5z" />
<glyph unicode="&#xe011;" glyph-name="signal" d="M512 725.333q131 0 255-46t225-135.333q14.333-12.333 14.333-32 0-16.667-10.667-28.333l-2-2q-12.333-12.333-30-12.333-16.667 0-28.333 10.667-89 78.667-198.5 119.333t-224.833 40.667-224.833-40.667-198.5-119.333q-11.667-10.667-28.333-10.667-19.667 0-32 14.333-10.667 11.667-10.667 28.333 0 19.667 14.333 32 101.333 89.333 225.167 135.333t254.833 46zM512.333 213.333q58 0 107.667-29.333 10-6 15.667-15.833t5.667-21.167-6-21.333q-3-5-6.667-8.667-12.333-12.333-30.333-12.333-12 0-21.333 5.667-30.333 17.667-64.667 17.667-34.667 0-65-17.667-10.667-6-21.667-6-24.333 0-37 21-6 10-6 21.333 0 24.333 21 37 50.333 29.667 108.667 29.667zM512 469q80.667 0 157-26.667t140-79q15.667-12.667 15.667-33 0-15.333-9.667-27-2-2.667-2.667-3.333-12.333-12.333-30-12.333-15.667 0-27.333 9.667-52 42.667-114.667 64.667t-128.333 22-128.333-22-114.667-64.667q-11.667-9.667-27-9.667-20.333 0-33 15.667-9.667 11.667-9.667 27 0 20.333 15.667 33 63.333 52.333 140 79t157 26.667z" />
<glyph unicode="&#xe012;" glyph-name="target" d="M512 853.333q95.667 0 182.5-37.167t149.667-100 100-149.667 37.167-182.5-37.167-182.5-100-149.667-149.667-100-182.5-37.167-182.5 37.167-149.667 100-100 149.667-37.167 182.5 37.167 182.5 100 149.667 149.667 100 182.5 37.167zM512 768q-78 0-149.167-30.5t-122.5-81.833-81.833-122.5-30.5-149.167 30.5-149.167 81.833-122.5 122.5-81.833 149.167-30.5 149.167 30.5 122.5 81.833 81.833 122.5 30.5 149.167-30.5 149.167-81.833 122.5-122.5 81.833-149.167 30.5zM512 682.667q60.667 0 116-23.667t95.333-63.667 63.667-95.333 23.667-116-23.667-116-63.667-95.333-95.333-63.667-116-23.667-116 23.667-95.333 63.667-63.667 95.333-23.667 116 23.667 116 63.667 95.333 95.333 63.667 116 23.667zM512 597.333q-43.333 0-82.833-17t-68-45.5-45.5-68-17-82.833 17-82.833 45.5-68 68-45.5 82.833-17 82.833 17 68 45.5 45.5 68 17 82.833-17 82.833-45.5 68-68 45.5-82.833 17zM512 512q53 0 90.5-37.5t37.5-90.5-37.5-90.5-90.5-37.5-90.5 37.5-37.5 90.5 37.5 90.5 90.5 37.5zM512 426.667q-17.667 0-30.167-12.5t-12.5-30.167 12.5-30.167 30.167-12.5 30.167 12.5 12.5 30.167-12.5 30.167-30.167 12.5z" />
<glyph unicode="&#xe013;" glyph-name="clipboard" d="M426.667 853.333h170.667q41.333 0 74.333-23.833t46.333-61.5h50q53 0 90.5-37.5t37.5-90.5v-597.333q0-53-37.5-90.5t-90.5-37.5h-512q-53 0-90.5 37.5t-37.5 90.5v597.333q0 53 37.5 90.5t90.5 37.5h50q13.333 37.667 46.333 61.5t74.333 23.833zM768 682.667h-50q-13.333-37.667-46.333-61.5t-74.333-23.833h-170.667q-41.333 0-74.333 23.833t-46.333 61.5h-50q-17.667 0-30.167-12.5t-12.5-30.167v-597.333q0-17.667 12.5-30.167t30.167-12.5h512q17.667 0 30.167 12.5t12.5 30.167v597.333q0 17.667-12.5 30.167t-30.167 12.5zM597.333 768h-170.667q-17.667 0-30.167-12.5t-12.5-30.167 12.5-30.167 30.167-12.5h170.667q17.667 0 30.167 12.5t12.5 30.167-12.5 30.167-30.167 12.5z" />
<glyph unicode="&#xe014;" glyph-name="clock" d="M512 853.333q95.667 0 182.5-37.167t149.667-100 100-149.667 37.167-182.5-37.167-182.5-100-149.667-149.667-100-182.5-37.167-182.5 37.167-149.667 100-100 149.667-37.167 182.5 37.167 182.5 100 149.667 149.667 100 182.5 37.167zM512 768q-78 0-149.167-30.5t-122.5-81.833-81.833-122.5-30.5-149.167 30.5-149.167 81.833-122.5 122.5-81.833 149.167-30.5 149.167 30.5 122.5 81.833 81.833 122.5 30.5 149.167-30.5 149.167-81.833 122.5-122.5 81.833-149.167 30.5zM512 682.667q17.667 0 30.167-12.5t12.5-30.167v-238.333l115.667-115.333q12.333-12.333 12.333-30.333t-12.333-30.333-30.333-12.333-30.333 12.333l-128 128q-12.333 12.333-12.333 30.333v256q0 17.667 12.5 30.167t30.167 12.5z" />
<glyph unicode="&#xe015;" glyph-name="watch" d="M384 896h256q53 0 90.5-37.5t37.5-90.5v-98q60-53.333 94-127.833t34-158.167-34-158-94-128v-98q0-53-37.5-90.5t-90.5-37.5h-256q-53 0-90.5 37.5t-37.5 90.5v98q-60 53.667-94 128t-34 158 34 158.167 94 127.833v98q0 53 37.5 90.5t90.5 37.5zM682.667 0v40q-80-40-170.667-40t-170.667 40v-40q0-17.667 12.5-30.167t30.167-12.5h256q17.667 0 30.167 12.5t12.5 30.167zM512 682.667q-60.667 0-116-23.667t-95.333-63.667-63.667-95.333-23.667-116 23.667-116 63.667-95.333 95.333-63.667 116-23.667 116 23.667 95.333 63.667 63.667 95.333 23.667 116-23.667 116-63.667 95.333-95.333 63.667-116 23.667zM512 597.333q17.667 0 30.167-12.5t12.5-30.167v-153l73-72.667q12.333-12.333 12.333-30.333t-12.333-30.333-30.333-12.333-30.333 12.333l-85.333 85.333q-12.333 12.333-12.333 30.333v170.667q0 17.667 12.5 30.167t30.167 12.5zM640 810.667h-256q-17.667 0-30.167-12.5t-12.5-30.167v-40q80 40 170.667 40t170.667-40v40q0 17.667-12.5 30.167t-30.167 12.5z" />
<glyph unicode="&#xe016;" glyph-name="air-play" d="M170.667 810.667h682.667q53 0 90.5-37.5t37.5-90.5v-426.667q0-53-37.5-90.5t-90.5-37.5h-106.667l-64 85.333h170.667q17.667 0 30.167 12.5t12.5 30.167v426.667q0 17.667-12.5 30.167t-30.167 12.5h-682.667q-17.667 0-30.167-12.5t-12.5-30.167v-426.667q0-17.667 12.5-30.167t30.167-12.5h170.667l-64-85.333h-106.667q-53 0-90.5 37.5t-37.5 90.5v426.667q0 53 37.5 90.5t90.5 37.5zM597.333 42.667l-85.333 113.667-85.333-113.667h170.667zM256-42.667l256 341.333 256-341.333h-512z" />
<glyph unicode="&#xe017;" glyph-name="camera" d="M341.333 810.667h341.333l85.333-128h128q53 0 90.5-38.167t37.5-91.167v-468.667q0-53-37.5-90.167t-90.5-37.167h-768q-53 0-90.5 37.5t-37.5 90.5v468.667q0 53 37.5 90.833t90.5 37.833h128zM512 554.667q43.333 0 82.833-17t68-45.5 45.5-68 17-82.833-17-82.833-45.5-68-68-45.5-82.833-17-82.833 17-68 45.5-45.5 68-17 82.833 17 82.833 45.5 68 68 45.5 82.833 17zM512 469.333q-53 0-90.5-37.5t-37.5-90.5 37.5-90.5 90.5-37.5 90.5 37.5 37.5 90.5-37.5 90.5-90.5 37.5zM722.333 597.333l-83.667 128h-251.667l-85.333-128h-173.667q-17.667 0-30.167-12.667t-12.5-30.667v-468.667q0-17.667 12.5-30.167t30.167-12.5h768q18 0 30.333 12.167t12.333 29.833v468.667q0 18-12.667 31t-30 13h-173.667z" />
<glyph unicode="&#xe018;" glyph-name="video" d="M128 682.667h469.333q53 0 90.5-37.5t37.5-90.5v-77.667l298.667 163v-512l-298.667 163v-77.667q0-53-37.5-90.5t-90.5-37.5h-469.333q-53 0-90.5 37.5t-37.5 90.5v341.333q0 53 37.5 90.5t90.5 37.5zM597.333 597.333h-469.333q-17.667 0-30.167-12.5t-12.5-30.167v-341.333q0-17.667 12.5-30.167t30.167-12.5h469.333q17.667 0 30.167 12.5t12.5 30.167v341.333q0 17.667-12.5 30.167t-30.167 12.5zM938.667 271.667v224.667l-205.667-112.333z" />
<glyph unicode="&#xe019;" glyph-name="disc" d="M512 853.333q95.667 0 182.5-37.167t149.667-100 100-149.667 37.167-182.5-37.167-182.5-100-149.667-149.667-100-182.5-37.167-182.5 37.167-149.667 100-100 149.667-37.167 182.5 37.167 182.5 100 149.667 149.667 100 182.5 37.167zM512 768q-78 0-149.167-30.5t-122.5-81.833-81.833-122.5-30.5-149.167 30.5-149.167 81.833-122.5 122.5-81.833 149.167-30.5 149.167 30.5 122.5 81.833 81.833 122.5 30.5 149.167-30.5 149.167-81.833 122.5-122.5 81.833-149.167 30.5zM512 554.667q70.667 0 120.667-50t50-120.667-50-120.667-120.667-50-120.667 50-50 120.667 50 120.667 120.667 50zM512 469.333q-35.333 0-60.333-25t-25-60.333 25-60.333 60.333-25 60.333 25 25 60.333-25 60.333-60.333 25z" />
<glyph unicode="&#xe020;" glyph-name="printer" d="M384 810.667h256q53 0 90.5-37.5t37.5-90.5v-213.333h85.333q53 0 90.5-37.5t37.5-90.5v-170.667q0-53-37.5-90.5t-90.5-37.5h-92.667q-13.333-37.667-46.333-61.5t-74.333-23.833h-256q-41.333 0-74.333 23.833t-46.333 61.5h-92.667q-53 0-90.5 37.5t-37.5 90.5v170.667q0 53 37.5 90.5t90.5 37.5h85.333v213.333q0 53 37.5 90.5t90.5 37.5zM640 128h-256q-17.667 0-30.167-12.5t-12.5-30.167 12.5-30.167 30.167-12.5h256q17.667 0 30.167 12.5t12.5 30.167-12.5 30.167-30.167 12.5zM853.333 384h-682.667q-17.667 0-30.167-12.5t-12.5-30.167v-170.667q0-17.667 12.5-30.167t30.167-12.5h92.667q13.333 37.667 46.333 61.5t74.333 23.833h256q41.333 0 74.333-23.833t46.333-61.5h92.667q17.667 0 30.167 12.5t12.5 30.167v170.667q0 17.667-12.5 30.167t-30.167 12.5zM640 725.333h-256q-17.667 0-30.167-12.5t-12.5-30.167v-213.333h341.333v213.333q0 17.667-12.5 30.167t-30.167 12.5z" />
<glyph unicode="&#xe021;" glyph-name="monitor" d="M170.667 810.667h682.667q53 0 90.5-37.5t37.5-90.5v-426.667q0-53-37.5-90.5t-90.5-37.5h-298.667v-85.333h128q17.667 0 30.167-12.5t12.5-30.167-12.5-30.167-30.167-12.5h-341.333q-17.667 0-30.167 12.5t-12.5 30.167 12.5 30.167 30.167 12.5h128v85.333h-298.667q-53 0-90.5 37.5t-37.5 90.5v426.667q0 53 37.5 90.5t90.5 37.5zM853.333 725.333h-682.667q-17.667 0-30.167-12.5t-12.5-30.167v-426.667q0-17.667 12.5-30.167t30.167-12.5h682.667q17.667 0 30.167 12.5t12.5 30.167v426.667q0 17.667-12.5 30.167t-30.167 12.5z" />
<glyph unicode="&#xe022;" glyph-name="server" d="M512 853.333q87.333 0 169-10.5t149.833-30.667 109.333-53.667 41.167-75.833v-597.333q0-42.333-41.167-75.833t-109.333-53.667-149.833-30.667-169-10.5-169 10.5-149.833 30.667-109.333 53.667-41.167 75.833v597.333q0 42.333 41.167 75.833t109.333 53.667 149.833 30.667 169 10.5zM896 86v194.333q-65.333-33-168.333-50t-215.667-17-215.667 17-168.333 50v-195q2-7.333 17.833-17.667t48.5-22.333 76-22 107-16.667 134.667-6.667 134.667 6.667 107 16.833 76 22.167 48.5 22.333 17.833 18zM896 384.667v194.333q-65.333-33-168.333-50t-215.667-17-215.667 17-168.333 50v-195q2-7.333 17.833-17.667t48.5-22.333 76-22 107-16.667 134.667-6.667 134.667 6.667 106.833 16.667 75.833 22 48.667 22.5 18 18.167zM512 768q-70.333 0-133.667-6.667t-106.333-16.5-75.833-21.667-49.167-22.333-19-18.167q2.667-7.667 19-18.167t49.167-22.333 75.833-21.667 106.333-16.5 133.667-6.667 133.667 6.667 106.333 16.5 75.833 21.667 49.167 22.333 19 18.167q-2.667 7.667-19 18.167t-49.167 22.333-75.833 21.667-106.333 16.5-133.667 6.667z" />
<glyph unicode="&#xe023;" glyph-name="cog" d="M512 896q53 0 90.5-37.5t37.5-90.5v-22q15.667-5.333 37.667-15.333l15.333 15.333q37.667 37.667 90.667 37.667 52.667 0 90.333-37.667t37.667-90.333q0-53-37.667-90.667l-15.333-15.333q10-22 15.333-37.667h22q53 0 90.5-37.5t37.5-90.5-37.5-90.5-90.5-37.5h-22q-5.333-15.667-15.333-37.667l15.333-15.333q37.667-37.667 37.667-90.667 0-52.667-37.667-90.333t-90.333-37.667q-53 0-90.667 37.667l-15.333 15.333q-22-10-37.667-15.333v-22q0-53-37.5-90.5t-90.5-37.5-90.5 37.5-37.5 90.5v22q-15.667 5.333-37.667 15.333l-15.333-15.333q-37.667-37.667-90.333-37.667-53 0-90.5 37.667t-37.5 90.333q0 53.333 37.333 90.667l15.333 15.333q-10 22-15.333 37.667h-22q-53 0-90.5 37.5t-37.5 90.5 37.5 90.5 90.5 37.5h22q5.333 15.667 15.333 37.667l-15.333 15.333q-37.333 37.333-37.333 90.667 0 52.667 37.5 90.333t90.5 37.667q52.667 0 90.333-37.667l15.333-15.333q22 10 37.667 15.333v22q0 53 37.5 90.5t90.5 37.5zM512 810.667q-17.667 0-30.167-12.5t-12.5-30.167v-88.333q-74.667-10.667-136.333-56.333l-62.333 62.333q-12.667 12.667-30 12.667-17.667 0-30.167-12.5t-12.5-30.167q0-18 12.333-30.333l62.333-62.333q-45.667-61.667-56.333-136.333h-88.333q-17.667 0-30.167-12.5t-12.5-30.167 12.5-30.167 30.167-12.5h88.333q10.667-74.667 56.333-136.333l-62.333-62.333q-12.333-12.333-12.333-30.333 0-17.667 12.5-30.167t30.167-12.5q17.333 0 30 12.667l62.333 62.333q61.667-45.667 136.333-56.333v-88.333q0-17.667 12.5-30.167t30.167-12.5 30.167 12.5 12.5 30.167v88.333q74.667 10.667 136.333 56.333l62.333-62.333q12.667-12.667 30.333-12.667t30.167 12.5 12.5 30.167-12.667 30.333l-62.333 62.333q45.667 61.667 56.333 136.333h88.333q17.667 0 30.167 12.5t12.5 30.167-12.5 30.167-30.167 12.5h-88.333q-10.667 74.667-56.333 136.333l62.333 62.333q12.667 12.667 12.667 30.333t-12.5 30.167-30.167 12.5-30.333-12.667l-62.333-62.333q-61.667 45.667-136.333 56.333v88.333q0 17.667-12.5 30.167t-30.167 12.5zM512 554.667q70.667 0 120.667-50t50-120.667-50-120.667-120.667-50-120.667 50-50 120.667 50 120.667 120.667 50zM512 469.333q-35.333 0-60.333-25t-25-60.333 25-60.333 60.333-25 60.333 25 25 60.333-25 60.333-60.333 25z" />
<glyph unicode="&#xe024;" glyph-name="heart" d="M753.333 810.667q69.667 0 128.5-34.333t93.167-93.167 34.333-128.5q0-50-19.167-97.167t-55.833-83.833l-422.333-422.333-422.333 422.333q-36.667 36.667-55.833 83.833t-19.167 97.167q0 69.667 34.333 128.5t93.167 93.167 128.5 34.333q50.333 0 97.167-19t83.833-56l60.333-60.333 60.333 60.333q36.667 36.667 83.833 55.833t97.167 19.167zM753.333 725.333q-33.333 0-64.667-12.667t-56-37.333l-120.667-120.667-120.667 120.667q-24.667 24.667-56 37.333t-64.667 12.667q-46.667 0-85.833-22.833t-62-62-22.833-85.833q0-33.333 12.667-64.667t37.333-56l362-362 362 362q24.667 24.667 37.333 56t12.667 64.667q0 46.667-22.833 85.833t-62 62-85.833 22.833z" />
<glyph unicode="&#xe025;" glyph-name="paragraph" d="M426.667 853.333h384q17.667 0 30.167-12.5t12.5-30.167v-853.333q0-17.667-12.5-30.167t-30.167-12.5-30.167 12.5-12.5 30.167v810.667h-85.333v-810.667q0-17.667-12.5-30.167t-30.167-12.5-30.167 12.5-12.5 30.167v384h-170.667q-69.667 0-128.5 34.333t-93.167 93.167-34.333 128.5 34.333 128.5 93.167 93.167 128.5 34.333zM597.333 426.667v341.333h-170.667q-70.667 0-120.667-50t-50-120.667 50-120.667 120.667-50h170.667z" />
<glyph unicode="&#xe026;" glyph-name="align-justify" d="M128 682.667h768q17.667 0 30.167-12.5t12.5-30.167-12.5-30.167-30.167-12.5h-768q-17.667 0-30.167 12.5t-12.5 30.167 12.5 30.167 30.167 12.5zM128 170.667h768q17.667 0 30.167-12.5t12.5-30.167-12.5-30.167-30.167-12.5h-768q-17.667 0-30.167 12.5t-12.5 30.167 12.5 30.167 30.167 12.5zM128 341.333h768q17.667 0 30.167-12.5t12.5-30.167-12.5-30.167-30.167-12.5h-768q-17.667 0-30.167 12.5t-12.5 30.167 12.5 30.167 30.167 12.5zM128 512h768q17.667 0 30.167-12.5t12.5-30.167-12.5-30.167-30.167-12.5h-768q-17.667 0-30.167 12.5t-12.5 30.167 12.5 30.167 30.167 12.5z" />
<glyph unicode="&#xe027;" glyph-name="align-left" d="M128 682.667h768q17.667 0 30.167-12.5t12.5-30.167-12.5-30.167-30.167-12.5h-768q-17.667 0-30.167 12.5t-12.5 30.167 12.5 30.167 30.167 12.5zM128 170.667h597.333q17.667 0 30.167-12.5t12.5-30.167-12.5-30.167-30.167-12.5h-597.333q-17.667 0-30.167 12.5t-12.5 30.167 12.5 30.167 30.167 12.5zM128 341.333h768q17.667 0 30.167-12.5t12.5-30.167-12.5-30.167-30.167-12.5h-768q-17.667 0-30.167 12.5t-12.5 30.167 12.5 30.167 30.167 12.5zM128 512h597.333q17.667 0 30.167-12.5t12.5-30.167-12.5-30.167-30.167-12.5h-597.333q-17.667 0-30.167 12.5t-12.5 30.167 12.5 30.167 30.167 12.5z" />
<glyph unicode="&#xe028;" glyph-name="align-center" d="M128 682.667h768q17.667 0 30.167-12.5t12.5-30.167-12.5-30.167-30.167-12.5h-768q-17.667 0-30.167 12.5t-12.5 30.167 12.5 30.167 30.167 12.5zM213.333 170.667h597.333q17.667 0 30.167-12.5t12.5-30.167-12.5-30.167-30.167-12.5h-597.333q-17.667 0-30.167 12.5t-12.5 30.167 12.5 30.167 30.167 12.5zM128 341.333h768q17.667 0 30.167-12.5t12.5-30.167-12.5-30.167-30.167-12.5h-768q-17.667 0-30.167 12.5t-12.5 30.167 12.5 30.167 30.167 12.5zM213.333 512h597.333q17.667 0 30.167-12.5t12.5-30.167-12.5-30.167-30.167-12.5h-597.333q-17.667 0-30.167 12.5t-12.5 30.167 12.5 30.167 30.167 12.5z" />
<glyph unicode="&#xe029;" glyph-name="align-right" d="M128 682.667h768q17.667 0 30.167-12.5t12.5-30.167-12.5-30.167-30.167-12.5h-768q-17.667 0-30.167 12.5t-12.5 30.167 12.5 30.167 30.167 12.5zM298.667 170.667h597.333q17.667 0 30.167-12.5t12.5-30.167-12.5-30.167-30.167-12.5h-597.333q-17.667 0-30.167 12.5t-12.5 30.167 12.5 30.167 30.167 12.5zM128 341.333h768q17.667 0 30.167-12.5t12.5-30.167-12.5-30.167-30.167-12.5h-768q-17.667 0-30.167 12.5t-12.5 30.167 12.5 30.167 30.167 12.5zM298.667 512h597.333q17.667 0 30.167-12.5t12.5-30.167-12.5-30.167-30.167-12.5h-597.333q-17.667 0-30.167 12.5t-12.5 30.167 12.5 30.167 30.167 12.5z" />
<glyph unicode="&#xe030;" glyph-name="book" d="M213.333 853.333h682.667v-938.667h-682.667q-53 0-90.5 37.5t-37.5 90.5v682.667q0 53 37.5 90.5t90.5 37.5zM810.667 0v85.333h-597.333q-17.667 0-30.167-12.5t-12.5-30.167 12.5-30.167 30.167-12.5h597.333zM810.667 170.667v597.333h-597.333q-17.667 0-30.167-12.5t-12.5-30.167v-562q21 7.333 42.667 7.333h597.333z" />
<glyph unicode="&#xe031;" glyph-name="layers" d="M0 597.333l512 256 512-256-512-256zM512 74.333l416 208.333 96-48-512-256.333-512 256.333 96 48zM512 255.667l416 208 96-48-512-256-512 256 96 48zM833.333 597.333l-321.333 160.667-321.333-160.667 321.333-160.667z" />
<glyph unicode="&#xe032;" glyph-name="stack" d="M469.333 853.333h384q53 0 90.5-37.5t37.5-90.5v-384q0-53-37.5-90.5t-90.5-37.5h-170.667v-170.667q0-53-37.5-90.5t-90.5-37.5h-384q-53 0-90.5 37.5t-37.5 90.5v384q0 53 37.5 90.5t90.5 37.5h170.667v170.667q0 53 37.5 90.5t90.5 37.5zM341.333 341.333v128h-170.667q-17.667 0-30.167-12.5t-12.5-30.167v-384q0-17.667 12.5-30.167t30.167-12.5h384q17.667 0 30.167 12.5t12.5 30.167v170.667h-128q-53 0-90.5 37.5t-37.5 90.5zM853.333 768h-384q-17.667 0-30.167-12.5t-12.5-30.167v-384q0-17.667 12.5-30.167t30.167-12.5h384q17.667 0 30.167 12.5t12.5 30.167v384q0 17.667-12.5 30.167t-30.167 12.5z" />
<glyph unicode="&#xe033;" glyph-name="stack-2" d="M384 810.667h426.667q53 0 90.5-37.5t37.5-90.5v-426.667q0-53-37.5-90.5t-90.5-37.5h-426.667q-53 0-90.5 37.5t-37.5 90.5v426.667q0 53 37.5 90.5t90.5 37.5zM170.667 632.667v-547.333q0-17.667 12.5-30.167t30.167-12.5h547.333q-13.333-37.667-46.333-61.5t-74.333-23.833h-426.667q-53 0-90.5 37.5t-37.5 90.5v426.667q0 41.333 23.833 74.333t61.5 46.333zM810.667 725.333h-426.667q-17.667 0-30.167-12.5t-12.5-30.167v-426.667q0-17.667 12.5-30.167t30.167-12.5h426.667q17.667 0 30.167 12.5t12.5 30.167v426.667q0 17.667-12.5 30.167t-30.167 12.5z" />
<glyph unicode="&#xe034;" glyph-name="paper" d="M213.333 896h597.333q53 0 90.5-37.5t37.5-90.5v-768q0-53-37.5-90.5t-90.5-37.5h-597.333q-53 0-90.5 37.5t-37.5 90.5v768q0 53 37.5 90.5t90.5 37.5zM341.333 170.667h341.333q17.667 0 30.167-12.5t12.5-30.167-12.5-30.167-30.167-12.5h-341.333q-17.667 0-30.167 12.5t-12.5 30.167 12.5 30.167 30.167 12.5zM341.333 341.333h341.333q17.667 0 30.167-12.5t12.5-30.167-12.5-30.167-30.167-12.5h-341.333q-17.667 0-30.167 12.5t-12.5 30.167 12.5 30.167 30.167 12.5zM810.667 810.667h-597.333q-17.667 0-30.167-12.5t-12.5-30.167v-768q0-17.667 12.5-30.167t30.167-12.5h597.333q17.667 0 30.167 12.5t12.5 30.167v768q0 17.667-12.5 30.167t-30.167 12.5zM341.333 512h341.333q17.667 0 30.167-12.5t12.5-30.167-12.5-30.167-30.167-12.5h-341.333q-17.667 0-30.167 12.5t-12.5 30.167 12.5 30.167 30.167 12.5zM341.333 682.667h170.667q17.667 0 30.167-12.5t12.5-30.167-12.5-30.167-30.167-12.5h-170.667q-17.667 0-30.167 12.5t-12.5 30.167 12.5 30.167 30.167 12.5z" />
<glyph unicode="&#xe035;" glyph-name="paper-stack" d="M384 896h426.667q53 0 90.5-37.5t37.5-90.5v-597.333q0-53-37.5-90.5t-90.5-37.5h-426.667q-53 0-90.5 37.5t-37.5 90.5v597.333q0 53 37.5 90.5t90.5 37.5zM170.667 718v-718q0-17.667 12.5-30.167t30.167-12.5h547.333q-13.333-37.667-46.333-61.5t-74.333-23.833h-426.667q-53 0-90.5 37.5t-37.5 90.5v597.333q0 41.333 23.833 74.333t61.5 46.333zM810.667 810.667h-426.667q-17.667 0-30.167-12.5t-12.5-30.167v-597.333q0-17.667 12.5-30.167t30.167-12.5h426.667q17.667 0 30.167 12.5t12.5 30.167v597.333q0 17.667-12.5 30.167t-30.167 12.5z" />
<glyph unicode="&#xe036;" glyph-name="search" d="M426.667 853.333q78 0 149.167-30.5t122.5-81.833 81.833-122.5 30.5-149.167q0-67-21.833-128.333t-62.167-111.333l242.333-242q12.333-12.333 12.333-30.333 0-18.333-12.167-30.5t-30.5-12.167q-18 0-30.333 12.333l-242 242.333q-50-40.333-111.333-62.167t-128.333-21.833q-78 0-149.167 30.5t-122.5 81.833-81.833 122.5-30.5 149.167 30.5 149.167 81.833 122.5 122.5 81.833 149.167 30.5zM426.667 768q-60.667 0-116-23.667t-95.333-63.667-63.667-95.333-23.667-116 23.667-116 63.667-95.333 95.333-63.667 116-23.667 116 23.667 95.333 63.667 63.667 95.333 23.667 116-23.667 116-63.667 95.333-95.333 63.667-116 23.667z" />
<glyph unicode="&#xe037;" glyph-name="zoom-in" d="M426.667 853.333q78 0 149.167-30.5t122.5-81.833 81.833-122.5 30.5-149.167q0-67-21.833-128.333t-62.167-111.333l242.333-242q12.333-12.333 12.333-30.333 0-18.333-12.167-30.5t-30.5-12.167q-18 0-30.333 12.333l-242 242.333q-50-40.333-111.333-62.167t-128.333-21.833q-78 0-149.167 30.5t-122.5 81.833-81.833 122.5-30.5 149.167 30.5 149.167 81.833 122.5 122.5 81.833 149.167 30.5zM426.667 768q-60.667 0-116-23.667t-95.333-63.667-63.667-95.333-23.667-116 23.667-116 63.667-95.333 95.333-63.667 116-23.667 116 23.667 95.333 63.667 63.667 95.333 23.667 116-23.667 116-63.667 95.333-95.333 63.667-116 23.667zM426.667 640q17.667 0 30.167-12.5t12.5-30.167v-85.333h85.333q17.667 0 30.167-12.5t12.5-30.167-12.5-30.167-30.167-12.5h-85.333v-85.333q0-17.667-12.5-30.167t-30.167-12.5-30.167 12.5-12.5 30.167v85.333h-85.333q-17.667 0-30.167 12.5t-12.5 30.167 12.5 30.167 30.167 12.5h85.333v85.333q0 17.667 12.5 30.167t30.167 12.5z" />
<glyph unicode="&#xe038;" glyph-name="zoom-out" d="M426.667 853.333q78 0 149.167-30.5t122.5-81.833 81.833-122.5 30.5-149.167q0-67-21.833-128.333t-62.167-111.333l242.333-242q12.333-12.333 12.333-30.333 0-18.333-12.167-30.5t-30.5-12.167q-18 0-30.333 12.333l-242 242.333q-50-40.333-111.333-62.167t-128.333-21.833q-78 0-149.167 30.5t-122.5 81.833-81.833 122.5-30.5 149.167 30.5 149.167 81.833 122.5 122.5 81.833 149.167 30.5zM426.667 768q-60.667 0-116-23.667t-95.333-63.667-63.667-95.333-23.667-116 23.667-116 63.667-95.333 95.333-63.667 116-23.667 116 23.667 95.333 63.667 63.667 95.333 23.667 116-23.667 116-63.667 95.333-95.333 63.667-116 23.667zM298.667 512h256q17.667 0 30.167-12.5t12.5-30.167-12.5-30.167-30.167-12.5h-256q-17.667 0-30.167 12.5t-12.5 30.167 12.5 30.167 30.167 12.5z" />
<glyph unicode="&#xe039;" glyph-name="reply" d="M356.667 741q17.333 0 30-12.5t12.667-30.167-12.667-30.333l-198.667-198.667h409.333q78 0 149.167-30.333t122.5-81.833 81.833-122.5 30.5-149.333v-42.667q0-17.667-12.5-30.167t-30.167-12.5q-17.333 0-30 12.667t-12.667 30v42.667q0 60.667-23.667 116t-63.667 95.333-95.333 63.667-116 23.667h-409.333l198.667-199q12.667-12.667 12.667-30 0-17.667-12.5-30.333t-30.167-12.667-30.333 12.667l-271.333 271.667q-12.333 12.333-12.333 30.333 0 17.667 12.333 30l271.333 271.667q12.667 12.667 30.333 12.667z" />
<glyph unicode="&#xe040;" glyph-name="circle-plus" d="M512 853.333q95.667 0 182.5-37.167t149.667-100 100-149.667 37.167-182.5-37.167-182.5-100-149.667-149.667-100-182.5-37.167-182.5 37.167-149.667 100-100 149.667-37.167 182.5 37.167 182.5 100 149.667 149.667 100 182.5 37.167zM512 768q-78 0-149.167-30.5t-122.5-81.833-81.833-122.5-30.5-149.167 30.5-149.167 81.833-122.5 122.5-81.833 149.167-30.5 149.167 30.5 122.5 81.833 81.833 122.5 30.5 149.167-30.5 149.167-81.833 122.5-122.5 81.833-149.167 30.5zM512 597.333q17.667 0 30.167-12.5t12.5-30.167v-128h128q17.667 0 30.167-12.5t12.5-30.167-12.5-30.167-30.167-12.5h-128v-128q0-17.667-12.5-30.167t-30.167-12.5-30.167 12.5-12.5 30.167v128h-128q-17.667 0-30.167 12.5t-12.5 30.167 12.5 30.167 30.167 12.5h128v128q0 17.667 12.5 30.167t30.167 12.5z" />
<glyph unicode="&#xe041;" glyph-name="circle-minus" d="M512 853.333q95.667 0 182.5-37.167t149.667-100 100-149.667 37.167-182.5-37.167-182.5-100-149.667-149.667-100-182.5-37.167-182.5 37.167-149.667 100-100 149.667-37.167 182.5 37.167 182.5 100 149.667 149.667 100 182.5 37.167zM512 768q-78 0-149.167-30.5t-122.5-81.833-81.833-122.5-30.5-149.167 30.5-149.167 81.833-122.5 122.5-81.833 149.167-30.5 149.167 30.5 122.5 81.833 81.833 122.5 30.5 149.167-30.5 149.167-81.833 122.5-122.5 81.833-149.167 30.5zM341.333 426.667h341.333q17.667 0 30.167-12.5t12.5-30.167-12.5-30.167-30.167-12.5h-341.333q-17.667 0-30.167 12.5t-12.5 30.167 12.5 30.167 30.167 12.5z" />
<glyph unicode="&#xe042;" glyph-name="circle-check" d="M512 853.333q95.667 0 182.5-37.167t149.667-100 100-149.667 37.167-182.5-37.167-182.5-100-149.667-149.667-100-182.5-37.167-182.5 37.167-149.667 100-100 149.667-37.167 182.5 37.167 182.5 100 149.667 149.667 100 182.5 37.167zM512 768q-78 0-149.167-30.5t-122.5-81.833-81.833-122.5-30.5-149.167 30.5-149.167 81.833-122.5 122.5-81.833 149.167-30.5 149.167 30.5 122.5 81.833 81.833 122.5 30.5 149.167-30.5 149.167-81.833 122.5-122.5 81.833-149.167 30.5zM655.667 512.333q17.667 0 30.167-12.5t12.5-30.167-12.667-30.333l-181-181q-12.333-12.333-30-12.333-18 0-30.333 12.333l-90.667 90.333q-12.333 12.333-12.333 30.333 0 17.667 12.5 30.167t30.167 12.5 30.333-12.667l60.333-60.333 150.667 151q12.667 12.667 30.333 12.667z" />
<glyph unicode="&#xe043;" glyph-name="circle-cross" d="M512 853.333q95.667 0 182.5-37.167t149.667-100 100-149.667 37.167-182.5-37.167-182.5-100-149.667-149.667-100-182.5-37.167-182.5 37.167-149.667 100-100 149.667-37.167 182.5 37.167 182.5 100 149.667 149.667 100 182.5 37.167zM512 768q-78 0-149.167-30.5t-122.5-81.833-81.833-122.5-30.5-149.167 30.5-149.167 81.833-122.5 122.5-81.833 149.167-30.5 149.167 30.5 122.5 81.833 81.833 122.5 30.5 149.167-30.5 149.167-81.833 122.5-122.5 81.833-149.167 30.5zM632.667 547.667q17.667 0 30.333-12.5t12.667-30.167-12.667-30.333l-90.667-90.667 90.667-90.333q12.667-12.667 12.667-30 0-17.667-12.667-30.167t-30.333-12.5-30 12.333l-90.667 90.333-90.333-90.333q-12.333-12.333-30.333-12.333-17.667 0-30.167 12.333t-12.5 30q0 18 12.333 30.333l90.667 90.333-90.667 90.667q-12.333 12.333-12.333 30t12.5 30.333 30.167 12.667 30.333-12.667l90.333-90.667 90.667 90.667q12.667 12.667 30 12.667z" />
<glyph unicode="&#xe044;" glyph-name="square-plus" d="M170.667 853.333h682.667q53 0 90.5-37.5t37.5-90.5v-682.667q0-53-37.5-90.5t-90.5-37.5h-682.667q-53 0-90.5 37.5t-37.5 90.5v682.667q0 53 37.5 90.5t90.5 37.5zM853.333 768h-682.667q-17.667 0-30.167-12.5t-12.5-30.167v-682.667q0-17.667 12.5-30.167t30.167-12.5h682.667q17.667 0 30.167 12.5t12.5 30.167v682.667q0 17.667-12.5 30.167t-30.167 12.5zM512 597.333q17.667 0 30.167-12.5t12.5-30.167v-128h128q17.667 0 30.167-12.5t12.5-30.167-12.5-30.167-30.167-12.5h-128v-128q0-17.667-12.5-30.167t-30.167-12.5-30.167 12.5-12.5 30.167v128h-128q-17.667 0-30.167 12.5t-12.5 30.167 12.5 30.167 30.167 12.5h128v128q0 17.667 12.5 30.167t30.167 12.5z" />
<glyph unicode="&#xe045;" glyph-name="square-minus" d="M170.667 853.333h682.667q53 0 90.5-37.5t37.5-90.5v-682.667q0-53-37.5-90.5t-90.5-37.5h-682.667q-53 0-90.5 37.5t-37.5 90.5v682.667q0 53 37.5 90.5t90.5 37.5zM853.333 768h-682.667q-17.667 0-30.167-12.5t-12.5-30.167v-682.667q0-17.667 12.5-30.167t30.167-12.5h682.667q17.667 0 30.167 12.5t12.5 30.167v682.667q0 17.667-12.5 30.167t-30.167 12.5zM341.333 426.667h341.333q17.667 0 30.167-12.5t12.5-30.167-12.5-30.167-30.167-12.5h-341.333q-17.667 0-30.167 12.5t-12.5 30.167 12.5 30.167 30.167 12.5z" />
<glyph unicode="&#xe046;" glyph-name="square-check" d="M170.667 853.333h682.667q53 0 90.5-37.5t37.5-90.5v-682.667q0-53-37.5-90.5t-90.5-37.5h-682.667q-53 0-90.5 37.5t-37.5 90.5v682.667q0 53 37.5 90.5t90.5 37.5zM853.333 768h-682.667q-17.667 0-30.167-12.5t-12.5-30.167v-682.667q0-17.667 12.5-30.167t30.167-12.5h682.667q17.667 0 30.167 12.5t12.5 30.167v682.667q0 17.667-12.5 30.167t-30.167 12.5zM682.667 532.333q17.333 0 30-12.5t12.667-30.167-12.667-30.333l-211-211q-12.333-12.333-30-12.333-18 0-30.333 12.333l-120.667 120.667q-12.333 12.333-12.333 30.333 0 17.667 12.5 30.167t30.167 12.5q17.333 0 30-12.667l90.333-90.667 181 181q12.667 12.667 30.333 12.667z" />
<glyph unicode="&#xe047;" glyph-name="square-cross" d="M170.667 853.333h682.667q53 0 90.5-37.5t37.5-90.5v-682.667q0-53-37.5-90.5t-90.5-37.5h-682.667q-53 0-90.5 37.5t-37.5 90.5v682.667q0 53 37.5 90.5t90.5 37.5zM853.333 768h-682.667q-17.667 0-30.167-12.5t-12.5-30.167v-682.667q0-17.667 12.5-30.167t30.167-12.5h682.667q17.667 0 30.167 12.5t12.5 30.167v682.667q0 17.667-12.5 30.167t-30.167 12.5zM632.667 547.667q17.667 0 30.333-12.667t12.667-30.333-12.667-30.333l-90.667-90.333 90.667-90.333q12.667-12.667 12.667-30.333t-12.667-30.167-30.333-12.5-30 12.333l-90.667 90.667-90.667-90.667q-12-12.333-30-12.333-18.333 0-30.5 12.167t-12.167 30.5q0 18 12.333 30.333l90.667 90.333-90.667 90.333q-12.333 12.333-12.333 30.333 0 17.667 12.5 30.333t30.167 12.667q18 0 30-12.667l90.667-90.667 90.667 90.667q12.667 12.667 30 12.667z" />
<glyph unicode="&#xe048;" glyph-name="microphone" d="M810.667 512q17.667 0 30.167-12.5t12.5-30.167v-85.333q0-64-23.167-123.167t-63-103.667-95-74.333-117.5-37.5v-88h128q17.667 0 30.167-12.5t12.5-30.167-12.5-30.167-30.167-12.5h-341.333q-17.667 0-30.167 12.5t-12.5 30.167 12.5 30.167 30.167 12.5h128v88q-62.333 7.667-117.5 37.5t-95 74.333-63 103.667-23.167 123.167v85.333q0 17.667 12.5 30.167t30.167 12.5 30.167-12.5 12.5-30.167v-85.333q0-69.667 34.333-128.5t93.167-93.167 128.5-34.333 128.5 34.333 93.167 93.167 34.333 128.5v85.333q0 17.667 12.5 30.167t30.167 12.5zM512 896q70.667 0 120.667-50t50-120.667v-341.333q0-70.667-50-120.667t-120.667-50-120.667 50-50 120.667v341.333q0 70.667 50 120.667t120.667 50zM512 810.667q-35.333 0-60.333-25t-25-60.333v-341.333q0-35.333 25-60.333t60.333-25 60.333 25 25 60.333v341.333q0 35.333-25 60.333t-60.333 25z" />
<glyph unicode="&#xe049;" glyph-name="record" d="M512 768q78 0 149.167-30.5t122.5-81.833 81.833-122.5 30.5-149.167-30.5-149.167-81.833-122.5-122.5-81.833-149.167-30.5-149.167 30.5-122.5 81.833-81.833 122.5-30.5 149.167 30.5 149.167 81.833 122.5 122.5 81.833 149.167 30.5zM512 682.667q-60.667 0-116-23.667t-95.333-63.667-63.667-95.333-23.667-116 23.667-116 63.667-95.333 95.333-63.667 116-23.667 116 23.667 95.333 63.667 63.667 95.333 23.667 116-23.667 116-63.667 95.333-95.333 63.667-116 23.667z" />
<glyph unicode="&#xe050;" glyph-name="skip-back" d="M725.333 725.333q17.667 0 30.167-12.5t12.5-30.167q0-18-12.333-30.333l-268.667-268.333 268.667-268.667q12.333-12.333 12.333-30.333 0-17.667-12.5-30t-30.167-12.333q-18 0-30.333 12.333l-298.667 298.667q-12.333 13-12.333 30.333 0 17 12.333 30l298.667 298.667q12.667 12.667 30.333 12.667zM256 725.333q17.667 0 30.167-12.5t12.5-30.167v-597.333q0-17.667-12.5-30.167t-30.167-12.5-30.167 12.5-12.5 30.167v597.333q0 17.667 12.5 30.167t30.167 12.5z" />
<glyph unicode="&#xe051;" glyph-name="rewind" d="M768 725.333q17.667 0 30.167-12.5t12.5-30.167-12.667-30.333l-268.333-268.333 268.333-268.333q12.667-12.667 12.667-30.333t-12.5-30.167-30.167-12.5q-18 0-30.333 12.333l-298.667 298.667q-12.333 12.333-12.333 30.333t12.333 30.333l298.667 298.667q12.333 12.333 30.333 12.333zM512 725.333q17.667 0 30.167-12.5t12.5-30.167-12.667-30.333l-268.333-268.333 268.333-268.333q12.667-12.667 12.667-30.333t-12.5-30.167-30.167-12.5q-18 0-30.333 12.333l-298.667 298.667q-12.333 12.333-12.333 30.333t12.333 30.333l298.667 298.667q12.333 12.333 30.333 12.333z" />
<glyph unicode="&#xe052;" glyph-name="play" d="M170.667 0v768l640-384zM644.667 384l-388.667 233.333v-466.667z" />
<glyph unicode="&#xe053;" glyph-name="pause" d="M682.667 768q53 0 90.5-37.5t37.5-90.5v-512q0-53-37.5-90.5t-90.5-37.5-90.5 37.5-37.5 90.5v512q0 53 37.5 90.5t90.5 37.5zM341.333 768q53 0 90.5-37.5t37.5-90.5v-512q0-53-37.5-90.5t-90.5-37.5-90.5 37.5-37.5 90.5v512q0 53 37.5 90.5t90.5 37.5zM341.333 682.667q-17.667 0-30.167-12.5t-12.5-30.167v-512q0-17.667 12.5-30.167t30.167-12.5 30.167 12.5 12.5 30.167v512q0 17.667-12.5 30.167t-30.167 12.5zM682.667 682.667q-17.667 0-30.167-12.5t-12.5-30.167v-512q0-17.667 12.5-30.167t30.167-12.5 30.167 12.5 12.5 30.167v512q0 17.667-12.5 30.167t-30.167 12.5z" />
<glyph unicode="&#xe054;" glyph-name="stop" d="M256 768h512q53 0 90.5-37.5t37.5-90.5v-512q0-53-37.5-90.5t-90.5-37.5h-512q-53 0-90.5 37.5t-37.5 90.5v512q0 53 37.5 90.5t90.5 37.5zM768 682.667h-512q-17.667 0-30.167-12.5t-12.5-30.167v-512q0-17.667 12.5-30.167t30.167-12.5h512q17.667 0 30.167 12.5t12.5 30.167v512q0 17.667-12.5 30.167t-30.167 12.5z" />
<glyph unicode="&#xe055;" glyph-name="fast-forward" d="M469.333 725.333q17.667 0 30-12.333l298.667-298.667q12.667-12.667 12.667-30.333t-12.667-30.333l-298.667-298.667q-12.333-12.333-30-12.333t-30.167 12.5-12.5 30.167q0 18 12.333 30.333l268.333 268.333-268.333 268.333q-12.333 12.333-12.333 30.333 0 18.333 12.167 30.5t30.5 12.167zM213.333 725.333q17.667 0 30-12.333l298.667-298.667q12.667-12.667 12.667-30.333t-12.667-30.333l-298.667-298.667q-12.333-12.333-30-12.333t-30.167 12.5-12.5 30.167q0 18 12.333 30.333l268.333 268.333-268.333 268.333q-12.333 12.333-12.333 30.333 0 18.333 12.167 30.5t30.5 12.167z" />
<glyph unicode="&#xe056;" glyph-name="skip-forward" d="M256 725.333q17.667 0 30.333-12.667l298.667-298.667q12.333-12.333 12.333-30 0-18-12.333-30.333l-298.667-298.667q-12.333-12.333-30.333-12.333-17.667 0-30.167 12.333t-12.5 30q0 17.333 12.333 30.333l268.667 268.667-268.667 268.333q-12.333 13-12.333 30.333 0 17.667 12.5 30.167t30.167 12.5zM725.333 725.333q17.667 0 30.167-12.5t12.5-30.167v-597.333q0-17.667-12.5-30.167t-30.167-12.5-30.167 12.5-12.5 30.167v597.333q0 17.667 12.5 30.167t30.167 12.5z" />
<glyph unicode="&#xe057;" glyph-name="shuffle" d="M768 896q17.667 0 30.333-12.667l170.667-170.667q12.333-12.333 12.333-30 0-18-12.333-30.333l-170.667-170.667q-12.333-12.333-30.333-12.333-17.667 0-30.167 12.5t-12.5 30.167q0 17 12.333 30l98 98h-67.667q-60 0-112.667-26.167t-88.333-71.5q-55-70-55-158.333 0-89-42.667-165.333-22.667-41-55-73.667-47.333-48.333-110.333-75.333t-133.333-27h-85.333q-17.667 0-30.167 12.5t-12.5 30.167 12.5 30.167 30.167 12.5h85.333q60.333 0 112.833 26t88.167 71.333q55 70 55 158.667 0 89 42.667 165.333 23 41.333 55 73.333 47.333 48.333 110.333 75.5t133.333 27.167h67.667l-98 97.667q-12.333 13-12.333 30.333 0 17.667 12.5 30.167t30.167 12.5zM768 298.667q17.667 0 30.333-12.667l170.667-170.667q12.333-12.333 12.333-30.333 0-17.667-12.333-30l-170.667-170.667q-12.333-12.333-30.333-12.333-17.667 0-30.167 12.333t-12.5 30q0 17.333 12.333 30.333l98 98h-67.667q-70.333 0-133.333 27t-110.333 75.333q25.667 37.667 42.667 80.333 35.667-45.333 88.167-71.333t112.833-26h67.667l-98 97.667q-12.333 13-12.333 30.333 0 17.667 12.5 30.167t30.167 12.5zM85.333 725.333h85.333q70.333 0 133.333-27.167t110.333-75.5q-26-38.333-42.667-80.333-35.667 45.333-88.333 71.5t-112.667 26.167h-85.333q-17.667 0-30.167 12.5t-12.5 30.167 12.5 30.167 30.167 12.5z" />
<glyph unicode="&#xe058;" glyph-name="repeat" d="M42.667 341.333h256q17.667 0 30.167-12.5t12.5-30.167-12.5-30.167-30.167-12.5h-144l116-113.333q49.333-49.667 113-75 61-25 128.333-25t128.333 25q33.333 13.667 62.5 33.5t49.667 40.667 37.333 44.667 27 43.833 17.167 40q6 16.667 22 24.167t32.333 1.833q16.667-6 24.167-21.833t1.833-32.167q-14-42.667-40.667-84.667t-60-75.333q-61.333-61.333-141-93.667-77.333-31.333-160.667-31.333-83 0-160.667 31.333-79.667 32.333-141 93.667l-125 122.333v-162q0-17.667-12.5-30.167t-30.167-12.5-30.167 12.5-12.5 30.167v256q0 17.667 12.5 30.167t30.167 12.5zM512 810.667q83 0 160.667-31.333 79.667-32.333 141-93.667l0.667-0.667 124.333-121.667v162q0 17.667 12.5 30.167t30.167 12.5 30.167-12.5 12.5-30.167v-256q0-17.667-12.5-30.167t-30.167-12.5h-256q-17.667 0-30.167 12.5t-12.5 30.167 12.5 30.167 30.167 12.5h144l-116 113.333q-48.667 48.667-110.833 74.333t-130.5 25.667q-67.333 0-128.333-25-63.667-25.333-113-75-20-17.667-43.833-53.833t-36.833-73.833q-6-16.667-22-24.167t-32.333-1.833q-16.667 6-24.167 21.833t-1.833 32.167q14 42.667 40.667 84.667t60 75.333q61.333 61.333 141 93.667 77.667 31.333 160.667 31.333z" />
<glyph unicode="&#xe059;" glyph-name="folder" d="M170.667 810.667h213.333l85.333-128h384q53 0 90.5-37.5t37.5-90.5v-469.333q0-53-37.5-90.5t-90.5-37.5h-682.667q-53 0-90.5 37.5t-37.5 90.5v597.333q0 53 37.5 90.5t90.5 37.5zM423.667 597.333l-82.333 128h-170.667q-17.667 0-30.167-12.5t-12.5-30.167v-597.333q0-17.667 12.5-30.167t30.167-12.5h682.667q17.667 0 30.167 12.5t12.5 30.167v469.333q0 17.667-12.5 30.167t-30.167 12.5h-429.667z" />
<glyph unicode="&#xe060;" glyph-name="umbrella" d="M512 853.333q75 0 145.833-21t130-59.667 106.667-91.167 79-117.833 43.5-137q7-41.333 7-85.333h-469.333v-256q0-35.333 25-60.333t60.333-25 60.333 25 25 60.333q0 17.667 12.5 30.167t30.167 12.5 30.167-12.5 12.5-30.167q0-70.667-50-120.667t-120.667-50-120.667 50-50 120.667v256h-469.333q0 44 7 85.333 12 71.667 43.5 137t79 117.833 106.667 91.167 130 59.667 145.833 21zM512 768q-101.333 0-190.333-44.667t-148.5-122.333-79.167-174.333h836q-19.667 96.667-79.167 174.333t-148.5 122.333-190.333 44.667z" />
<glyph unicode="&#xe061;" glyph-name="moon" d="M512 810.667q14.333 0 28.333-1-28.333-61-28.333-127 0-60.667 23.667-116t63.667-95.333 95.333-63.667 116-23.667q66 0 127 28.333 1-14 1-28.333 0-58-15.333-113.333t-42.833-102.167-66.833-86.167-86.167-66.833-102.167-42.833-113.333-15.333-113.333 15.333-102.167 42.833-86.167 66.833-66.833 86.167-42.833 102.167-15.333 113.333 15.333 113.333 42.833 102.167 66.833 86.167 86.167 66.833 102.167 42.833 113.333 15.333zM428 715q-55-14-102.5-45.333t-81.667-74.333-53.667-97.833-19.5-113.5q0-69.333 27-132.5t72.833-109 109-72.833 132.5-27q58.667 0 113.5 19.5t97.833 53.667 74.333 81.667 45.333 102.5q-14.333-1.333-32.333-1.333-78 0-149 30.5t-122.5 82-82 122.5-30.5 149q0 18 1.333 32.333z" />
<glyph unicode="&#xe062;" glyph-name="thermometer" d="M490.667 896q61.667 0 105.5-43.833t43.833-105.5v-459q39.667-33 62.5-80.167t22.833-100.833q0-47.667-18.5-91.167t-50-75-75-50-91.167-18.5-91.167 18.5-75 50-50 75-18.5 91.167q0 53.667 22.833 100.833t62.5 80.167v459q0 61.667 43.833 105.5t105.5 43.833zM490.667 810.667q-26.667 0-45.333-18.667t-18.667-45.333v-505.333q-38.333-18.333-61.833-54.5t-23.5-80.167q0-61.667 43.833-105.5t105.5-43.833 105.5 43.833 43.833 105.5q0 44-23.5 80.167t-61.833 54.5v505.333q0 26.667-18.667 45.333t-45.333 18.667z" />
<glyph unicode="&#xe063;" glyph-name="drop" d="M240.333 570.333l271.667 271.667 271.667-271.667q55.333-55.333 83.833-126t28.5-145.667q0-75.333-28.5-145.667t-83.833-125.667-126-84-145.667-28.667-145.667 28.667-126 84q-55 55.333-83.667 125.833t-28.667 145.5 28.667 145.667 83.667 126zM723.333 510l-211.333 211.333-211.333-211.333q-42.667-43-65-98t-22.333-113.333 22.167-113.167 65.167-97.833 98-65.333 113.333-22.333q58.667 0 113.5 22.333t97.833 65.333 65.167 97.667 22.167 113.333q0 58.333-22.167 113.333t-65.167 98z" />
<glyph unicode="&#xe064;" glyph-name="sun" d="M512 640q69.667 0 128.5-34.333t93.167-93.167 34.333-128.5-34.333-128.5-93.167-93.167-128.5-34.333-128.5 34.333-93.167 93.167-34.333 128.5 34.333 128.5 93.167 93.167 128.5 34.333zM240.667 155.333q17.667 0 30.167-12.667t12.5-30.333q0-17.333-12.667-30l-60.333-60.333q-12.667-12.667-30-12.667-17.667 0-30.167 12.5t-12.5 30.167q0 18 12.333 30.333l60.333 60.333q12.667 12.667 30.333 12.667zM512 42.667q17.667 0 30.167-12.5t12.5-30.167v-85.333q0-17.667-12.5-30.167t-30.167-12.5-30.167 12.5-12.5 30.167v85.333q0 17.667 12.5 30.167t30.167 12.5zM42.667 426.667h85.333q17.667 0 30.167-12.5t12.5-30.167-12.5-30.167-30.167-12.5h-85.333q-17.667 0-30.167 12.5t-12.5 30.167 12.5 30.167 30.167 12.5zM512 554.667q-70.667 0-120.667-50t-50-120.667 50-120.667 120.667-50 120.667 50 50 120.667-50 120.667-120.667 50zM783.667 155.333q17.333 0 30-12.667l60.333-60.333q12.667-12.667 12.667-30.333 0-17.333-12.667-30t-30-12.667q-17.667 0-30.333 12.667l-60.333 60.333q-12.333 12.333-12.333 30t12.5 30.333 30.167 12.667zM180.333 758.667q17.333 0 30-12.667l60.333-60.333q12.667-12.667 12.667-30 0-17.667-12.5-30.167t-30.167-12.5q-18 0-30.333 12.333l-60.333 60.333q-12.333 12.333-12.333 30.333 0 17.667 12.5 30.167t30.167 12.5zM512 896q17.667 0 30.167-12.5t12.5-30.167v-85.333q0-17.667-12.5-30.167t-30.167-12.5-30.167 12.5-12.5 30.167v85.333q0 17.667 12.5 30.167t30.167 12.5zM896 426.667h85.333q17.667 0 30.167-12.5t12.5-30.167-12.5-30.167-30.167-12.5h-85.333q-17.667 0-30.167 12.5t-12.5 30.167 12.5 30.167 30.167 12.5zM844 758.667q17.333 0 30-12.667t12.667-30q0-17.667-12.667-30.333l-60.333-60.333q-12.333-12.333-30-12.333-18.333 0-30.5 12.167t-12.167 30.5q0 17.667 12.333 30l60.333 60.333q12.667 12.667 30.333 12.667z" />
<glyph unicode="&#xe065;" glyph-name="cloud" d="M640 768q78 0 149.167-30.5t122.5-81.833 81.833-122.5 30.5-149.167-30.5-149.167-81.833-122.5-122.5-81.833-149.167-30.5h-384q-69.667 0-128.5 34.333t-93.167 93.167-34.333 128.5 34.333 128.5 93.167 93.167 128.5 34.333h22q26.333 74.333 79.333 132.167t126.833 90.833 155.833 33zM640 682.667q-55.333 0-106.5-19.833t-90-53.833-65-81.333-33.833-101h-88.667q-70.667 0-120.667-50t-50-120.667 50-120.667 120.667-50h384q60.667 0 116 23.667t95.333 63.667 63.667 95.333 23.667 116-23.667 116-63.667 95.333-95.333 63.667-116 23.667z" />
<glyph unicode="&#xe066;" glyph-name="cloud-upload" d="M640 810.667q78 0 149.167-30.5t122.5-81.833 81.833-122.5 30.5-149.167q0-72.667-26.5-139.667t-72-117.333-108.667-83.5-134.167-41.167v86q71.667 10.333 130.167 51.833t92.167 105.667 33.667 138.167q0 60.667-23.667 116t-63.667 95.333-95.333 63.667-116 23.667q-55.333 0-106.5-19.833t-90-53.833-65-81.333-33.833-101h-88.667q-70.667 0-120.667-50t-50-120.667q0-38.667 15.167-71.667t39.833-54.167 54.833-33 60.833-11.833h170.667v-85.333h-170.667q-69.667 0-128.5 34.333t-93.167 93.167-34.333 128.5 34.333 128.5 93.167 93.167 128.5 34.333h22q26.333 74.333 79.333 132.167t126.833 90.833 155.833 33zM554.667 469.333q17.667 0 30.333-12.667l128-128q12.333-12.333 12.333-30 0-18.333-12.167-30.5t-30.5-12.167q-18 0-30.333 12.333l-55 55.333v-281q0-17.667-12.5-30.167t-30.167-12.5-30.167 12.5-12.5 30.167v281l-55-55.333q-12.333-12.333-30.333-12.333-17.667 0-30.167 12.5t-12.5 30.167q0 17 12.333 30l128 128q12.667 12.667 30.333 12.667z" />
<glyph unicode="&#xe067;" glyph-name="cloud-download" d="M640 810.667q78 0 149.167-30.5t122.5-81.833 81.833-122.5 30.5-149.167q0-85-35-160.667t-96.667-129.167-140-77.5l21 20.667q18 18.333 28 42.667 9.333 22.667 9.333 49.333 0 6.667-0.333 9.333 59.333 41.333 93.833 105.833t34.5 139.5q0 60.667-23.667 116t-63.667 95.333-95.333 63.667-116 23.667q-55.333 0-106.5-19.833t-90-53.833-65-81.333-33.833-101h-88.667q-70.667 0-120.667-50t-50-120.667q0-38.667 15.167-71.667t39.833-54.167 54.833-33 60.833-11.833h50q11.667-29.333 30-48l37.667-37.333h-117.667q-69.667 0-128.5 34.333t-93.167 93.167-34.333 128.5 34.333 128.5 93.167 93.167 128.5 34.333h22q26.333 74.333 79.333 132.167t126.833 90.833 155.833 33zM554.667 469.333q17.667 0 30.167-12.5t12.5-30.167v-281l55 55.333q12.333 12.333 30.333 12.333 18.333 0 30.5-12.167t12.167-30.5q0-18-12.333-30.333l-128-128q-12.333-12.333-30.333-12.333t-30.333 12.333l-128 128q-12.333 13-12.333 30.333 0 17.667 12.5 30.167t30.167 12.5q18 0 30.333-12.333l55-55.333v281q0 17.667 12.5 30.167t30.167 12.5z" />
<glyph unicode="&#xe068;" glyph-name="upload" d="M213.333 896h597.333q53 0 90.5-37.5t37.5-90.5v-597.333q0-53-37.5-90.5t-90.5-37.5h-170.667v85.333h170.667q17.667 0 30.167 12.5t12.5 30.167v597.333q0 17.667-12.5 30.167t-30.167 12.5h-597.333q-17.667 0-30.167-12.5t-12.5-30.167v-597.333q0-17.667 12.5-30.167t30.167-12.5h170.667v-85.333h-170.667q-53 0-90.5 37.5t-37.5 90.5v597.333q0 53 37.5 90.5t90.5 37.5zM512 597.333q18 0 30.333-12.333l170.667-170.667q12.333-12.333 12.333-30.333 0-17.667-12.5-30.167t-30.167-12.5q-17.333 0-30.333 12.333l-97.667 98v-537q0-17.667-12.5-30.167t-30.167-12.5-30.167 12.5-12.5 30.167v537l-97.667-98q-13-12.333-30.333-12.333-17.667 0-30.167 12.5t-12.5 30.167q0 17.333 12.333 30.333l170.667 170.667q12.333 12.333 30.333 12.333z" />
<glyph unicode="&#xe069;" glyph-name="download" d="M640 725.333h170.667q53 0 90.5-37.5t37.5-90.5v-597.333q0-53-37.5-90.5t-90.5-37.5h-597.333q-53 0-90.5 37.5t-37.5 90.5v597.333q0 53 37.5 90.5t90.5 37.5h170.667v-85.333h-170.667q-17.667 0-30.167-12.5t-12.5-30.167v-597.333q0-17.667 12.5-30.167t30.167-12.5h597.333q17.667 0 30.167 12.5t12.5 30.167v597.333q0 17.667-12.5 30.167t-30.167 12.5h-170.667v85.333zM512 896q17.667 0 30.167-12.5t12.5-30.167v-537l97.667 98q12.333 12.333 30.333 12.333 18.333 0 30.5-12.167t12.167-30.5q0-18-12.333-30.333l-170.667-170.667q-12.333-12.333-30.333-12.333t-30.333 12.333l-170.667 170.667q-12.333 13-12.333 30.333 0 17.667 12.5 30.167t30.167 12.5q18 0 30.333-12.333l97.667-98v537q0 17.667 12.5 30.167t30.167 12.5z" />
<glyph unicode="&#xe070;" glyph-name="location" d="M0 426.667l1024 469.333-469.333-1024-128 426.667zM571.333 113.333l279.333 609.333-609.333-279.333 254-76z" />
<glyph unicode="&#xe071;" glyph-name="location-2" d="M512 853.333q95.667 0 182.5-37.167t149.667-100 100-149.667 37.167-182.5-37.167-182.5-100-149.667-149.667-100-182.5-37.167-182.5 37.167-149.667 100-100 149.667-37.167 182.5 37.167 182.5 100 149.667 149.667 100 182.5 37.167zM554.667 765.667v-125.667q0-17.667-12.5-30.167t-30.167-12.5-30.167 12.5-12.5 30.167v125.667q-66-7.333-125.167-36.333t-103.833-73.667-73.667-103.833-36.333-125.167h125.667q17.667 0 30.167-12.5t12.5-30.167-12.5-30.167-30.167-12.5h-125.667q7.333-66 36.333-125.167t73.667-103.833 103.833-73.667 125.167-36.333v125.667q0 17.667 12.5 30.167t30.167 12.5 30.167-12.5 12.5-30.167v-125.667q66 7.333 125.167 36.333t103.833 73.667 73.667 103.833 36.333 125.167h-125.667q-17.667 0-30.167 12.5t-12.5 30.167 12.5 30.167 30.167 12.5h125.667q-7.333 66-36.333 125.167t-73.667 103.833-103.833 73.667-125.167 36.333z" />
<glyph unicode="&#xe072;" glyph-name="map" d="M682.667 682.667l341.333 213.333v-810.667l-341.333-213.333-341.333 213.333-341.333-213.333v810.667l341.333 213.333zM298.667 159.333v609l-213.333-133.333v-609zM640 608.667l-256 160.333v-609.667l256-160v609.333zM938.667 132.667v609.333l-213.333-133.333v-609.333z" />
<glyph unicode="&#xe073;" glyph-name="battery" d="M128 682.667h640q53 0 90.5-37.5t37.5-90.5q53 0 90.5-37.5t37.5-90.5v-85.333q0-53-37.5-90.5t-90.5-37.5q0-53-37.5-90.5t-90.5-37.5h-640q-53 0-90.5 37.5t-37.5 90.5v341.333q0 53 37.5 90.5t90.5 37.5zM768 597.333h-640q-17.667 0-30.167-12.5t-12.5-30.167v-341.333q0-17.667 12.5-30.167t30.167-12.5h640q17.667 0 30.167 12.5t12.5 30.167v341.333q0 17.667-12.5 30.167t-30.167 12.5zM896 469.333v-170.667q17.667 0 30.167 12.5t12.5 30.167v85.333q0 17.667-12.5 30.167t-30.167 12.5z" />
<glyph unicode="&#xe074;" glyph-name="head" d="M512 896q69.667 0 128.5-34.333t93.167-93.167 34.333-128.5v-128q0-53.333-20.667-101t-57.667-83q97.333-15.333 173-45.167t118.5-70.5 42.833-85.667v-84q0-53-37.5-90.5t-90.5-37.5h-768q-53 0-90.5 37.5t-37.5 90.5v84.333q0 45 42.833 85.667t118.333 70.5 172.833 44.833q-36.667 35.667-57.333 83.167t-20.667 100.833v128q0 69.667 34.333 128.5t93.167 93.167 128.5 34.333zM512 256q-92.667 0-178.833-14.833t-150.167-41.5q-25.667-10.667-45.833-22.667t-30.667-21.667-15.833-16.833-5.333-11.5v-84.333q0-17.667 12.5-30.167t30.167-12.5h768q17.667 0 30.167 12.5t12.5 30.167v84q0 4.333-5.333 11.5t-15.833 16.833-30.667 21.667-45.833 23q-64 26.667-150.167 41.5t-178.833 14.833zM512 810.667q-70.667 0-120.667-50t-50-120.667v-128q0-70.667 50-120.667t120.667-50 120.667 50 50 120.667v128q0 70.667-50 120.667t-120.667 50z" />
<glyph unicode="&#xe075;" glyph-name="briefcase" d="M426.667 810.667h170.667q53 0 90.5-37.5t37.5-90.5v-42.667h128q53 0 90.5-37.5t37.5-90.5v-426.667q0-53-37.5-90.5t-90.5-37.5h-682.667q-53 0-90.5 37.5t-37.5 90.5v426.667q0 53 37.5 90.5t90.5 37.5h128v42.667q0 53 37.5 90.5t90.5 37.5zM213.333 42.667v512h-42.667q-17.667 0-30.167-12.5t-12.5-30.167v-426.667q0-17.667 12.5-30.167t30.167-12.5h42.667zM725.333 42.667v512h-426.667v-512h426.667zM853.333 554.667h-42.667v-512h42.667q17.667 0 30.167 12.5t12.5 30.167v426.667q0 17.667-12.5 30.167t-30.167 12.5zM597.333 725.333h-170.667q-17.667 0-30.167-12.5t-12.5-30.167v-42.667h256v42.667q0 17.667-12.5 30.167t-30.167 12.5z" />
<glyph unicode="&#xe076;" glyph-name="speech-bubble" d="M170.667 853.333h682.667q53 0 90.5-37.5t37.5-90.5v-469.333q0-53-37.5-90.5t-90.5-37.5h-341.333l-298.667-213.333v213.333h-42.667q-53 0-90.5 37.5t-37.5 90.5v469.333q0 53 37.5 90.5t90.5 37.5zM853.333 768h-682.667q-17.667 0-30.167-12.5t-12.5-30.167v-469.333q0-17.667 12.5-30.167t30.167-12.5h128v-133l186 133h368.667q17.667 0 30.167 12.5t12.5 30.167v469.333q0 17.667-12.5 30.167t-30.167 12.5z" />
<glyph unicode="&#xe077;" glyph-name="anchor" d="M512 853.333q70.667 0 120.667-50t50-120.667q0-59-36-104.833t-92-60.167v-515.333q71 8 134.167 41.167t108.667 83.5 72 117.333 26.5 139.667q0 17.667 12.5 30.167t30.167 12.5 30.167-12.5 12.5-30.167q0-95.667-37.167-182.5t-100-149.667-149.667-100-182.5-37.167-182.5 37.167-149.667 100-100 149.667-37.167 182.5q0 17.667 12.5 30.167t30.167 12.5 30.167-12.5 12.5-30.167q0-72.667 26.5-139.667t72-117.333 108.667-83.5 134.167-41.167v515.333q-56 14.333-92 60.167t-36 104.833q0 70.667 50 120.667t120.667 50zM512 768q-35.333 0-60.333-25t-25-60.333 25-60.333 60.333-25 60.333 25 25 60.333-25 60.333-60.333 25z" />
<glyph unicode="&#xe078;" glyph-name="globe" d="M512 853.333q12 0 18-0.333 62-2.333 120.5-20.5t108.167-48.833 91.167-73.833 70.333-93.833 45-110.167 16.167-121.833-16.167-121.833-45-110.167-70.333-93.833-91.167-73.833-108.167-48.833-120.5-20.5q-6-0.333-18-0.333t-18 0.333q-62 2.333-120.5 20.5t-108.167 48.833-91.167 73.833-70.333 93.833-45 110.167-16.167 121.833 16.167 121.833 45 110.167 70.333 93.833 91.167 73.833 108.167 48.833 120.5 20.5q6 0.333 18 0.333zM300.333 341.333h-170q13.333-119 91.667-209t192.667-120q-43.333 65.667-75.5 148.833t-38.833 180.167zM638.333 341.333h-252.667q3.333-42.667 13.833-85.333t23.5-75.5 30-64.833 30.667-52.667 28.333-39.667q14.667 19 28.333 39.833t30.667 52.833 30 64.833 23.5 75.333 13.833 85.167zM414.667 755.667q-114.333-30-192.667-120t-91.667-209h170q11.667 174 114.333 329zM893.667 341.333h-169.667q-12.333-174.333-114.667-329 114.333 30 192.667 120t91.667 209zM512 744.667q-14.667-19-28.167-39.833t-30.667-52.833-30.167-64.833-23.5-75.333-13.833-85.167h252.667q-3.333 42.667-13.833 85.333t-23.5 75.5-30 64.833-30.667 52.667-28.333 39.667zM609.333 755.667q102.333-154.667 114.667-329h169.667q-13.333 119-91.667 209t-192.667 120z" />
<glyph unicode="&#xe079;" glyph-name="box" d="M42.667 682.667l469.333 213.333 469.333-213.333v-597.333l-469.333-213.333-469.333 213.333v597.333zM469.333 442l-341.333 155v-456.667l341.333-155.333v457zM896 140.333v456.667l-341.333-155v-457zM826.667 659.333l-314.667 143-314.667-143 314.667-143z" />
<glyph unicode="&#xe080;" glyph-name="reload" d="M469.333 810.667q83 0 160.667-31.333 79.667-32.333 141-93.667 0.333-0.333 125-122.333v162q0 17.667 12.5 30.167t30.167 12.5 30.167-12.5 12.5-30.167v-256q0-17.667-12.5-30.167t-30.167-12.5h-256q-17.667 0-30.167 12.5t-12.5 30.167 12.5 30.167 30.167 12.5h144q-92.667 90-116 113.333-49.667 49.667-113 75-61 25-128.333 25t-128.333-25q-63.667-25.333-113-75-49.333-49.333-75-113-25-61-25-128.333t25-128.333q25.667-63.667 75-113 49.333-49.667 113-75 61-25 128.333-25t128.333 25q63.333 25.333 113 75 55.333 55.333 80.667 127.667 5.667 16.667 21.667 24.167t32.667 1.833q16.667-6 24.333-22t1.667-32.667q-15.333-43.667-41.5-85.333t-59.167-74q-61.333-61.333-141-93.667-77.667-31.333-160.667-31.333t-160.667 31.333q-79.667 32.333-141 93.667t-93.667 141q-31.333 77.667-31.333 160.667t31.333 160.667q32.333 79.667 93.667 141t141 93.667q77.667 31.333 160.667 31.333z" />
<glyph unicode="&#xe081;" glyph-name="share" d="M768 810.667q70.667 0 120.667-50t50-120.667-50-120.667-120.667-50q-37.667 0-71.167 15.5t-57.5 43.167l-216.333-108.333q3.667-17.667 3.667-35.667t-3.667-35.667l216.333-108.333q24 27.667 57.5 43.167t71.167 15.5q70.667 0 120.667-50t50-120.667-50-120.667-120.667-50-120.667 50-50 120.667q0 18 3.667 35.667l-216.333 108.333q-24-27.667-57.5-43.167t-71.167-15.5q-70.667 0-120.667 50t-50 120.667 50 120.667 120.667 50q37.667 0 71.167-15.5t57.5-43.167l216.333 108.333q-3.667 17.667-3.667 35.667 0 70.667 50 120.667t120.667 50zM256 469.333q-35.333 0-60.333-25t-25-60.333 25-60.333 60.333-25 60.333 25 25 60.333-25 60.333-60.333 25zM768 213.333q-35.333 0-60.333-25t-25-60.333 25-60.333 60.333-25 60.333 25 25 60.333-25 60.333-60.333 25zM768 725.333q-35.333 0-60.333-25t-25-60.333 25-60.333 60.333-25 60.333 25 25 60.333-25 60.333-60.333 25z" />
<glyph unicode="&#xe082;" glyph-name="marquee" d="M768 853.333h85.333q53 0 90.5-37.5t37.5-90.5v-85.333q0-17.667-12.5-30.167t-30.167-12.5-30.167 12.5-12.5 30.167v85.333q0 17.667-12.5 30.167t-30.167 12.5h-85.333q-17.667 0-30.167 12.5t-12.5 30.167 12.5 30.167 30.167 12.5zM85.333 170.667q17.667 0 30.167-12.5t12.5-30.167v-85.333q0-17.667 12.5-30.167t30.167-12.5h85.333q17.667 0 30.167-12.5t12.5-30.167-12.5-30.167-30.167-12.5h-85.333q-53 0-90.5 37.5t-37.5 90.5v85.333q0 17.667 12.5 30.167t30.167 12.5zM85.333 512q17.667 0 30.167-12.5t12.5-30.167v-170.667q0-17.667-12.5-30.167t-30.167-12.5-30.167 12.5-12.5 30.167v170.667q0 17.667 12.5 30.167t30.167 12.5zM426.667 0h170.667q17.667 0 30.167-12.5t12.5-30.167-12.5-30.167-30.167-12.5h-170.667q-17.667 0-30.167 12.5t-12.5 30.167 12.5 30.167 30.167 12.5zM170.667 853.333h85.333q17.667 0 30.167-12.5t12.5-30.167-12.5-30.167-30.167-12.5h-85.333q-17.667 0-30.167-12.5t-12.5-30.167v-85.333q0-17.667-12.5-30.167t-30.167-12.5-30.167 12.5-12.5 30.167v85.333q0 53 37.5 90.5t90.5 37.5zM938.667 170.667q17.667 0 30.167-12.5t12.5-30.167v-85.333q0-53-37.5-90.5t-90.5-37.5h-85.333q-17.667 0-30.167 12.5t-12.5 30.167 12.5 30.167 30.167 12.5h85.333q17.667 0 30.167 12.5t12.5 30.167v85.333q0 17.667 12.5 30.167t30.167 12.5zM938.667 512q17.667 0 30.167-12.5t12.5-30.167v-170.667q0-17.667-12.5-30.167t-30.167-12.5-30.167 12.5-12.5 30.167v170.667q0 17.667 12.5 30.167t30.167 12.5zM426.667 853.333h170.667q17.667 0 30.167-12.5t12.5-30.167-12.5-30.167-30.167-12.5h-170.667q-17.667 0-30.167 12.5t-12.5 30.167 12.5 30.167 30.167 12.5z" />
<glyph unicode="&#xe083;" glyph-name="marquee-plus" d="M512 597.333q17.667 0 30.167-12.5t12.5-30.167v-128h128q17.667 0 30.167-12.5t12.5-30.167-12.5-30.167-30.167-12.5h-128v-128q0-17.667-12.5-30.167t-30.167-12.5-30.167 12.5-12.5 30.167v128h-128q-17.667 0-30.167 12.5t-12.5 30.167 12.5 30.167 30.167 12.5h128v128q0 17.667 12.5 30.167t30.167 12.5zM85.333 170.667q17.667 0 30.167-12.5t12.5-30.167v-85.333q0-17.667 12.5-30.167t30.167-12.5h85.333q17.667 0 30.167-12.5t12.5-30.167-12.5-30.167-30.167-12.5h-85.333q-53 0-90.5 37.5t-37.5 90.5v85.333q0 17.667 12.5 30.167t30.167 12.5zM85.333 512q17.667 0 30.167-12.5t12.5-30.167v-170.667q0-17.667-12.5-30.167t-30.167-12.5-30.167 12.5-12.5 30.167v170.667q0 17.667 12.5 30.167t30.167 12.5zM426.667 0h170.667q17.667 0 30.167-12.5t12.5-30.167-12.5-30.167-30.167-12.5h-170.667q-17.667 0-30.167 12.5t-12.5 30.167 12.5 30.167 30.167 12.5zM170.667 853.333h85.333q17.667 0 30.167-12.5t12.5-30.167-12.5-30.167-30.167-12.5h-85.333q-17.667 0-30.167-12.5t-12.5-30.167v-85.333q0-17.667-12.5-30.167t-30.167-12.5-30.167 12.5-12.5 30.167v85.333q0 53 37.5 90.5t90.5 37.5zM938.667 170.667q17.667 0 30.167-12.5t12.5-30.167v-85.333q0-53-37.5-90.5t-90.5-37.5h-85.333q-17.667 0-30.167 12.5t-12.5 30.167 12.5 30.167 30.167 12.5h85.333q17.667 0 30.167 12.5t12.5 30.167v85.333q0 17.667 12.5 30.167t30.167 12.5zM938.667 512q17.667 0 30.167-12.5t12.5-30.167v-170.667q0-17.667-12.5-30.167t-30.167-12.5-30.167 12.5-12.5 30.167v170.667q0 17.667 12.5 30.167t30.167 12.5zM426.667 853.333h170.667q17.667 0 30.167-12.5t12.5-30.167-12.5-30.167-30.167-12.5h-170.667q-17.667 0-30.167 12.5t-12.5 30.167 12.5 30.167 30.167 12.5zM768 853.333h85.333q53 0 90.5-37.5t37.5-90.5v-85.333q0-17.667-12.5-30.167t-30.167-12.5-30.167 12.5-12.5 30.167v85.333q0 17.667-12.5 30.167t-30.167 12.5h-85.333q-17.667 0-30.167 12.5t-12.5 30.167 12.5 30.167 30.167 12.5z" />
<glyph unicode="&#xe084;" glyph-name="marquee-minus" d="M768 853.333h85.333q53 0 90.5-37.5t37.5-90.5v-85.333q0-17.667-12.5-30.167t-30.167-12.5-30.167 12.5-12.5 30.167v85.333q0 17.667-12.5 30.167t-30.167 12.5h-85.333q-17.667 0-30.167 12.5t-12.5 30.167 12.5 30.167 30.167 12.5zM85.333 170.667q17.667 0 30.167-12.5t12.5-30.167v-85.333q0-17.667 12.5-30.167t30.167-12.5h85.333q17.667 0 30.167-12.5t12.5-30.167-12.5-30.167-30.167-12.5h-85.333q-53 0-90.5 37.5t-37.5 90.5v85.333q0 17.667 12.5 30.167t30.167 12.5zM85.333 512q17.667 0 30.167-12.5t12.5-30.167v-170.667q0-17.667-12.5-30.167t-30.167-12.5-30.167 12.5-12.5 30.167v170.667q0 17.667 12.5 30.167t30.167 12.5zM426.667 0h170.667q17.667 0 30.167-12.5t12.5-30.167-12.5-30.167-30.167-12.5h-170.667q-17.667 0-30.167 12.5t-12.5 30.167 12.5 30.167 30.167 12.5zM170.667 853.333h85.333q17.667 0 30.167-12.5t12.5-30.167-12.5-30.167-30.167-12.5h-85.333q-17.667 0-30.167-12.5t-12.5-30.167v-85.333q0-17.667-12.5-30.167t-30.167-12.5-30.167 12.5-12.5 30.167v85.333q0 53 37.5 90.5t90.5 37.5zM938.667 170.667q17.667 0 30.167-12.5t12.5-30.167v-85.333q0-53-37.5-90.5t-90.5-37.5h-85.333q-17.667 0-30.167 12.5t-12.5 30.167 12.5 30.167 30.167 12.5h85.333q17.667 0 30.167 12.5t12.5 30.167v85.333q0 17.667 12.5 30.167t30.167 12.5zM341.333 426.667h341.333q17.667 0 30.167-12.5t12.5-30.167-12.5-30.167-30.167-12.5h-341.333q-17.667 0-30.167 12.5t-12.5 30.167 12.5 30.167 30.167 12.5zM938.667 512q17.667 0 30.167-12.5t12.5-30.167v-170.667q0-17.667-12.5-30.167t-30.167-12.5-30.167 12.5-12.5 30.167v170.667q0 17.667 12.5 30.167t30.167 12.5zM426.667 853.333h170.667q17.667 0 30.167-12.5t12.5-30.167-12.5-30.167-30.167-12.5h-170.667q-17.667 0-30.167 12.5t-12.5 30.167 12.5 30.167 30.167 12.5z" />
<glyph unicode="&#xe085;" glyph-name="tag" d="M42.667 853.333h482.667l418.667-418.333q37.333-37.333 37.333-90.333 0-53.333-37.333-90.667l-302-302q-37.333-37.333-90.333-37.333-53.333 0-90.667 37.333l-418.333 418.667v482.667zM883.667 374.667l-393.667 393.333h-362v-362l393.333-393.667q12.667-12.333 30.333-12.333t30 12.333l302 302q12.333 12.333 12.333 30t-12.333 30.333zM362.667 640q44.333 0 75.5-31.167t31.167-75.5-31.167-75.5-75.5-31.167-75.5 31.167-31.167 75.5 31.167 75.5 75.5 31.167zM362.667 554.667q-8.667 0-15-6.333t-6.333-15 6.333-15 15-6.333 15 6.333 6.333 15-6.333 15-15 6.333z" />
<glyph unicode="&#xe086;" glyph-name="power" d="M813.667 643q59-59 91.333-135.667 33.667-79.333 33.667-166t-33.667-166q-32.333-76.667-91.333-135.667t-135.667-91.333q-79.333-33.667-166-33.667t-166 33.667q-76.667 32.333-135.667 91.333t-91.333 135.667q-33.667 79.333-33.667 166t33.667 166q32.333 76.667 91.333 135.667 12.333 12.333 30 12.333t30.333-12.333 12.667-30-12.667-30.333q-47-47-73.333-108.333-26.667-64-26.667-133t26.667-133q26.333-61.333 73.333-108.333t108.333-73.333q64-26.667 133-26.667t133 26.667q61.333 26.333 108.333 73.333t73.333 108.333q26.667 64 26.667 133t-26.667 133q-26.333 61.333-73.333 108.333-12.667 12.667-12.667 30.333t12.667 30 30.333 12.333 30-12.333zM512 853.333q17.667 0 30.167-12.5t12.5-30.167v-426.667q0-17.667-12.5-30.167t-30.167-12.5-30.167 12.5-12.5 30.167v426.667q0 17.667 12.5 30.167t30.167 12.5z" />
<glyph unicode="&#xe087;" glyph-name="command" d="M768 810.667q70.667 0 120.667-50t50-120.667-50-120.667-120.667-50h-85.333v-170.667h85.333q70.667 0 120.667-50t50-120.667-50-120.667-120.667-50-120.667 50-50 120.667v85.333h-170.667v-85.333q0-70.667-50-120.667t-120.667-50-120.667 50-50 120.667 50 120.667 120.667 50h85.333v170.667h-85.333q-70.667 0-120.667 50t-50 120.667 50 120.667 120.667 50 120.667-50 50-120.667v-85.333h170.667v85.333q0 70.667 50 120.667t120.667 50zM341.333 128v85.333h-85.333q-35.333 0-60.333-25t-25-60.333 25-60.333 60.333-25 60.333 25 25 60.333zM256 725.333q-35.333 0-60.333-25t-25-60.333 25-60.333 60.333-25h85.333v85.333q0 35.333-25 60.333t-60.333 25zM597.333 298.667v170.667h-170.667v-170.667h170.667zM768 213.333h-85.333v-85.333q0-35.333 25-60.333t60.333-25 60.333 25 25 60.333-25 60.333-60.333 25zM768 725.333q-35.333 0-60.333-25t-25-60.333v-85.333h85.333q35.333 0 60.333 25t25 60.333-25 60.333-60.333 25z" />
<glyph unicode="&#xe088;" glyph-name="alt" d="M128 725.333h213.333q24.333 0 37-21.333l329-576h188.667q17.667 0 30.167-12.5t12.5-30.167-12.5-30.167-30.167-12.5h-213.333q-24.333 0-37 21.333l-329 576h-188.667q-17.667 0-30.167 12.5t-12.5 30.167 12.5 30.167 30.167 12.5zM597.333 725.333h213.333q17.667 0 30.167-12.5t12.5-30.167-12.5-30.167-30.167-12.5h-213.333q-17.667 0-30.167 12.5t-12.5 30.167 12.5 30.167 30.167 12.5z" />
<glyph unicode="&#xe089;" glyph-name="esc" d="M559 851q86.333-8.667 163.833-47.667t136.167-103.333q57.667-63.333 89.667-143.667 32.667-83 32.667-172.333 0-95.667-37-182.667-34.333-82.333-100.333-149.333-67-66-149.333-100.333-87-37-182.667-37-89.333 0-172.333 32.667-80.333 32-143.667 89.667-64.333 58.667-103.333 136.167t-47.667 163.833q-1.667 19 10.833 33t31.833 14q16.333 0 28.5-11t13.833-27.333q7-71 38.833-134.333t84.833-111.333q51.667-47.667 117.333-73.333 68-26.667 141-26.667 78.333 0 149.333 30 67.333 28.333 122.333 82.333 54 55 82.333 122.333 30 71 30 149.333 0 73-26.667 141-25.667 65.667-73.333 117.333-48 53-111.333 84.833t-134.333 38.833q-16.333 1.667-27.333 13.833t-11 28.5q0 12.667 4.833 21.667t12.833 13.333 15.167 6 14.167 1.667zM85.333 853.333h256q17.667 0 30.167-12.5t12.5-30.167-12.5-30.167-30.167-12.5h-153l354-354q12.333-12 12.333-30 0-18.333-12.167-30.5t-30.5-12.167q-18 0-30.333 12.333l-353.667 354v-153q0-17.667-12.5-30.167t-30.167-12.5-30.167 12.5-12.5 30.167v256q0 17.667 12.5 30.167t30.167 12.5z" />
<glyph unicode="&#xe090;" glyph-name="bar-graph" d="M853.333 853.333q53 0 90.5-37.5t37.5-90.5v-682.667q0-53-37.5-90.5t-90.5-37.5-90.5 37.5-37.5 90.5v682.667q0 53 37.5 90.5t90.5 37.5zM170.667 341.333q53 0 90.5-37.5t37.5-90.5v-170.667q0-53-37.5-90.5t-90.5-37.5-90.5 37.5-37.5 90.5v170.667q0 53 37.5 90.5t90.5 37.5zM170.667 256q-17.667 0-30.167-12.5t-12.5-30.167v-170.667q0-17.667 12.5-30.167t30.167-12.5 30.167 12.5 12.5 30.167v170.667q0 17.667-12.5 30.167t-30.167 12.5zM512 597.333q53 0 90.5-37.5t37.5-90.5v-426.667q0-53-37.5-90.5t-90.5-37.5-90.5 37.5-37.5 90.5v426.667q0 53 37.5 90.5t90.5 37.5zM512 512q-17.667 0-30.167-12.5t-12.5-30.167v-426.667q0-17.667 12.5-30.167t30.167-12.5 30.167 12.5 12.5 30.167v426.667q0 17.667-12.5 30.167t-30.167 12.5zM853.333 768q-17.667 0-30.167-12.5t-12.5-30.167v-682.667q0-17.667 12.5-30.167t30.167-12.5 30.167 12.5 12.5 30.167v682.667q0 17.667-12.5 30.167t-30.167 12.5z" />
<glyph unicode="&#xe091;" glyph-name="bar-graph-2" d="M512 853.333q53 0 90.5-37.5t37.5-90.5v-682.667q0-53-37.5-90.5t-90.5-37.5-90.5 37.5-37.5 90.5v682.667q0 53 37.5 90.5t90.5 37.5zM170.667 341.333q53 0 90.5-37.5t37.5-90.5v-170.667q0-53-37.5-90.5t-90.5-37.5-90.5 37.5-37.5 90.5v170.667q0 53 37.5 90.5t90.5 37.5zM170.667 256q-17.667 0-30.167-12.5t-12.5-30.167v-170.667q0-17.667 12.5-30.167t30.167-12.5 30.167 12.5 12.5 30.167v170.667q0 17.667-12.5 30.167t-30.167 12.5zM512 768q-17.667 0-30.167-12.5t-12.5-30.167v-682.667q0-17.667 12.5-30.167t30.167-12.5 30.167 12.5 12.5 30.167v682.667q0 17.667-12.5 30.167t-30.167 12.5zM853.333 597.333q53 0 90.5-37.5t37.5-90.5v-426.667q0-53-37.5-90.5t-90.5-37.5-90.5 37.5-37.5 90.5v426.667q0 53 37.5 90.5t90.5 37.5zM853.333 512q-17.667 0-30.167-12.5t-12.5-30.167v-426.667q0-17.667 12.5-30.167t30.167-12.5 30.167 12.5 12.5 30.167v426.667q0 17.667-12.5 30.167t-30.167 12.5z" />
<glyph unicode="&#xe092;" glyph-name="pie-graph" d="M512 853.333q95.667 0 182.5-37.167t149.667-100 100-149.667 37.167-182.5-37.167-182.5-100-149.667-149.667-100-182.5-37.167-182.5 37.167-149.667 100-100 149.667-37.167 182.5 37.167 182.5 100 149.667 149.667 100 182.5 37.167zM469.333 341.333v424.333q-71-8-134.167-41.167t-108.667-83.5-72-117.333-26.5-139.667q0-78 30.5-149.167t81.833-122.5 122.5-81.833 149.167-30.5q72.667 0 139.667 26.5t117.333 72 83.5 108.667 41.167 134.167h-424.333zM554.667 765.667v-339h339q-7.333 66-36.333 125.167t-73.667 103.833-103.833 73.667-125.167 36.333z" />
<glyph unicode="&#xe093;" glyph-name="star" d="M396.667 512l115.333 355 115.333-355h373.333l-302-209.667 115.333-348.667-302 221-302-219.333 115.333 347-302 209.667h373.333zM565.333 426.667l-53.333 169.667-53.333-169.667h-165.667l133.333-88.333-52.333-157.667 138.333 100 137.667-101-52.333 157.667 133 89.333h-165.333z" />
<glyph unicode="&#xe094;" glyph-name="arrow-left" d="M426.667 725.333q17.667 0 30.167-12.5t12.5-30.167q0-18-12.667-30.333l-225.667-225.667h665q17.667 0 30.167-12.5t12.5-30.167-12.5-30.167-30.167-12.5h-665l225.667-225.667q12.667-12.333 12.667-30.333 0-17.667-12.5-30.167t-30.167-12.5q-18 0-30.333 12.333l-298.667 298.667q-12.333 13-12.333 30.333t12.333 30.333l298.667 298.667q12.667 12.333 30.333 12.333z" />
<glyph unicode="&#xe095;" glyph-name="arrow-right" d="M597.333 725.333q18 0 30.333-12.333l298.667-298.667q12.333-12.333 12.333-30.333t-12.333-30.333l-298.667-298.667q-12.333-12.333-30.333-12.333-18.333 0-30.5 12.167t-12.167 30.5q0 18 12.333 30.333l226 225.667h-665q-17.667 0-30.167 12.5t-12.5 30.167 12.5 30.167 30.167 12.5h665l-226 225.667q-12.333 12.333-12.333 30.333 0 18.333 12.167 30.5t30.5 12.167z" />
<glyph unicode="&#xe096;" glyph-name="arrow-up" d="M512 810.667q18 0 30.333-12.333l298.667-298.667q12.333-12.333 12.333-30.333 0-18.333-12.167-30.5t-30.5-12.167q-18 0-30.333 12.333l-225.667 226v-665q0-17.667-12.5-30.167t-30.167-12.5-30.167 12.5-12.5 30.167v665l-225.667-226q-12.333-12.333-30.333-12.333-18.333 0-30.5 12.167t-12.167 30.5q0 18 12.333 30.333l298.667 298.667q12.333 12.333 30.333 12.333z" />
<glyph unicode="&#xe097;" glyph-name="arrow-down" d="M512 810.667q17.667 0 30.167-12.5t12.5-30.167v-665l225.667 226q12.333 12.333 30.333 12.333 18.333 0 30.5-12.167t12.167-30.5q0-18-12.333-30.333l-298.667-298.667q-12.333-12.333-30.333-12.333t-30.333 12.333l-298.667 298.667q-12.333 12.333-12.333 30.333 0 18.333 12.167 30.5t30.5 12.167q18 0 30.333-12.333l225.667-226v665q0 17.667 12.5 30.167t30.167 12.5z" />
<glyph unicode="&#xe098;" glyph-name="volume" d="M213.333 554.667l213.333 213.333v-768l-213.333 213.333h-85.333q-53 0-90.5 37.5t-37.5 90.5v83.667q0 53 37.5 91.333t90.5 38.333h85.333zM341.333 206v357.667l-92.667-94.333h-120.667q-17.333 0-30-13.167t-12.667-31.167v-83.667q0-17.667 12.5-30.167t30.167-12.5h120.667zM620 526.333q12.333 0 23.167-7t16.167-19q23.333-56.333 23.333-116.333 0-61-23.333-115.667-5-12-15.833-19.167t-23.5-7.167q-15.667 0-29.167 11.833t-13.5 30.833q0 7.667 3.333 16.667 16.667 39.333 16.667 82.667 0 43-16.667 83-3.333 7.667-3.333 16.667 0 19 12.833 30.833t29.833 11.833zM750.333 645.333q24 0 36.667-21 33-55 49-113.667 17.333-62.667 17.333-126.667 0-63.667-17.333-127-16.333-59.333-49-113.667-12.333-20.667-36.667-20.667-16.667 0-29.667 12t-13 30.667q0 11.667 6.333 22 26 43.333 39.667 92.667 14.333 50 14.333 104 0 53.667-14.333 103.667-13.667 49.333-39.667 93-6.333 9.667-6.333 21.667 0 18 13.167 30.5t29.5 12.5zM878 762.333q23 0 35.333-18.667 54.333-79.667 82.5-171.333t28.167-188.333-28.167-188.333-82.5-171.333q-12-18.667-35.333-18.667-17.333 0-29.833 12t-12.5 30.667q0 13.333 7.333 24 95.667 140.333 95.667 311.667 0 84-24.333 163.333t-71.333 148.333q-7.333 10.667-7.333 24 0 18.667 12.5 30.667t29.833 12z" />
<glyph unicode="&#xe099;" glyph-name="mute" d="M256 554.667l213.333 213.333v-768l-213.333 213.333h-85.333q-53 0-90.5 37.5t-37.5 90.5v83.667q0 53 37.5 91.333t90.5 38.333h85.333zM384 206v357.667l-92.667-94.333h-120.667q-17.333 0-30-13.167t-12.667-31.167v-83.667q0-17.667 12.5-30.167t30.167-12.5h120.667zM896 554.667q18.333 0 30.5-12.167t12.167-30.5q0-18-12.333-30.333l-98-97.667 98-97.667q12.333-12.333 12.333-30.333 0-18.333-12.167-30.5t-30.5-12.167q-18 0-30.333 12.333l-97.667 98-97.667-98q-12.333-12.333-30.333-12.333-18.333 0-30.5 12.167t-12.167 30.5q0 18 12.333 30.333l98 97.667-98 97.667q-12.333 12.333-12.333 30.333 0 18.333 12.167 30.5t30.5 12.167q18 0 30.333-12.333l97.667-98 97.667 98q12.333 12.333 30.333 12.333z" />
<glyph unicode="&#xe100;" glyph-name="content-right" d="M682.667 853.333h170.667q53 0 90.5-37.5t37.5-90.5v-682.667q0-53-37.5-90.5t-90.5-37.5h-170.667q-53 0-90.5 37.5t-37.5 90.5v682.667q0 53 37.5 90.5t90.5 37.5zM170.667 341.333h170.667q53 0 90.5-37.5t37.5-90.5v-170.667q0-53-37.5-90.5t-90.5-37.5h-170.667q-53 0-90.5 37.5t-37.5 90.5v170.667q0 53 37.5 90.5t90.5 37.5zM341.333 256h-170.667q-17.667 0-30.167-12.5t-12.5-30.167v-170.667q0-17.667 12.5-30.167t30.167-12.5h170.667q17.667 0 30.167 12.5t12.5 30.167v170.667q0 17.667-12.5 30.167t-30.167 12.5zM170.667 853.333h170.667q53 0 90.5-37.5t37.5-90.5v-170.667q0-53-37.5-90.5t-90.5-37.5h-170.667q-53 0-90.5 37.5t-37.5 90.5v170.667q0 53 37.5 90.5t90.5 37.5zM341.333 768h-170.667q-17.667 0-30.167-12.5t-12.5-30.167v-170.667q0-17.667 12.5-30.167t30.167-12.5h170.667q17.667 0 30.167 12.5t12.5 30.167v170.667q0 17.667-12.5 30.167t-30.167 12.5zM853.333 768h-170.667q-17.667 0-30.167-12.5t-12.5-30.167v-682.667q0-17.667 12.5-30.167t30.167-12.5h170.667q17.667 0 30.167 12.5t12.5 30.167v682.667q0 17.667-12.5 30.167t-30.167 12.5z" />
<glyph unicode="&#xe101;" glyph-name="content-left" d="M170.667 853.333h170.667q53 0 90.5-37.5t37.5-90.5v-682.667q0-53-37.5-90.5t-90.5-37.5h-170.667q-53 0-90.5 37.5t-37.5 90.5v682.667q0 53 37.5 90.5t90.5 37.5zM341.333 768h-170.667q-17.667 0-30.167-12.5t-12.5-30.167v-682.667q0-17.667 12.5-30.167t30.167-12.5h170.667q17.667 0 30.167 12.5t12.5 30.167v682.667q0 17.667-12.5 30.167t-30.167 12.5zM682.667 341.333h170.667q53 0 90.5-37.5t37.5-90.5v-170.667q0-53-37.5-90.5t-90.5-37.5h-170.667q-53 0-90.5 37.5t-37.5 90.5v170.667q0 53 37.5 90.5t90.5 37.5zM853.333 256h-170.667q-17.667 0-30.167-12.5t-12.5-30.167v-170.667q0-17.667 12.5-30.167t30.167-12.5h170.667q17.667 0 30.167 12.5t12.5 30.167v170.667q0 17.667-12.5 30.167t-30.167 12.5zM682.667 853.333h170.667q53 0 90.5-37.5t37.5-90.5v-170.667q0-53-37.5-90.5t-90.5-37.5h-170.667q-53 0-90.5 37.5t-37.5 90.5v170.667q0 53 37.5 90.5t90.5 37.5zM853.333 768h-170.667q-17.667 0-30.167-12.5t-12.5-30.167v-170.667q0-17.667 12.5-30.167t30.167-12.5h170.667q17.667 0 30.167 12.5t12.5 30.167v170.667q0 17.667-12.5 30.167t-30.167 12.5z" />
<glyph unicode="&#xe102;" glyph-name="grid" d="M682.667 853.333h170.667q53 0 90.5-37.5t37.5-90.5v-170.667q0-53-37.5-90.5t-90.5-37.5h-170.667q-53 0-90.5 37.5t-37.5 90.5v170.667q0 53 37.5 90.5t90.5 37.5zM170.667 341.333h170.667q53 0 90.5-37.5t37.5-90.5v-170.667q0-53-37.5-90.5t-90.5-37.5h-170.667q-53 0-90.5 37.5t-37.5 90.5v170.667q0 53 37.5 90.5t90.5 37.5zM341.333 256h-170.667q-17.667 0-30.167-12.5t-12.5-30.167v-170.667q0-17.667 12.5-30.167t30.167-12.5h170.667q17.667 0 30.167 12.5t12.5 30.167v170.667q0 17.667-12.5 30.167t-30.167 12.5zM170.667 853.333h170.667q53 0 90.5-37.5t37.5-90.5v-170.667q0-53-37.5-90.5t-90.5-37.5h-170.667q-53 0-90.5 37.5t-37.5 90.5v170.667q0 53 37.5 90.5t90.5 37.5zM341.333 768h-170.667q-17.667 0-30.167-12.5t-12.5-30.167v-170.667q0-17.667 12.5-30.167t30.167-12.5h170.667q17.667 0 30.167 12.5t12.5 30.167v170.667q0 17.667-12.5 30.167t-30.167 12.5zM682.667 341.333h170.667q53 0 90.5-37.5t37.5-90.5v-170.667q0-53-37.5-90.5t-90.5-37.5h-170.667q-53 0-90.5 37.5t-37.5 90.5v170.667q0 53 37.5 90.5t90.5 37.5zM853.333 256h-170.667q-17.667 0-30.167-12.5t-12.5-30.167v-170.667q0-17.667 12.5-30.167t30.167-12.5h170.667q17.667 0 30.167 12.5t12.5 30.167v170.667q0 17.667-12.5 30.167t-30.167 12.5zM853.333 768h-170.667q-17.667 0-30.167-12.5t-12.5-30.167v-170.667q0-17.667 12.5-30.167t30.167-12.5h170.667q17.667 0 30.167 12.5t12.5 30.167v170.667q0 17.667-12.5 30.167t-30.167 12.5z" />
<glyph unicode="&#xe103;" glyph-name="grid-2" d="M170.667 853.333h682.667q53 0 90.5-37.5t37.5-90.5v-682.667q0-53-37.5-90.5t-90.5-37.5h-682.667q-53 0-90.5 37.5t-37.5 90.5v682.667q0 53 37.5 90.5t90.5 37.5zM469.333 0v341.333h-341.333v-298.667q0-17.667 12.5-30.167t30.167-12.5h298.667zM469.333 426.667v341.333h-298.667q-17.667 0-30.167-12.5t-12.5-30.167v-298.667h341.333zM896 42.667v298.667h-341.333v-341.333h298.667q17.667 0 30.167 12.5t12.5 30.167zM853.333 768h-298.667v-341.333h341.333v298.667q0 17.667-12.5 30.167t-30.167 12.5z" />
<glyph unicode="&#xe104;" glyph-name="columns" d="M128 768h768q53 0 90.5-37.5t37.5-90.5v-512q0-53-37.5-90.5t-90.5-37.5h-768q-53 0-90.5 37.5t-37.5 90.5v512q0 53 37.5 90.5t90.5 37.5zM298.667 85.333v597.333h-170.667q-17.667 0-30.167-12.5t-12.5-30.167v-512q0-17.667 12.5-30.167t30.167-12.5h170.667zM640 85.333v597.333h-256v-597.333h256zM896 682.667h-170.667v-597.333h170.667q17.667 0 30.167 12.5t12.5 30.167v512q0 17.667-12.5 30.167t-30.167 12.5z" />
<glyph unicode="&#xe105;" glyph-name="loader" d="M693.333 245.667q17.333 0 30-12.667l120.667-120.667q12.667-12.667 12.667-30.333 0-17.333-12.667-30t-30-12.667q-17.667 0-30.333 12.667l-120.667 120.667q-12.333 12.333-12.333 30.333 0 17.667 12.5 30.167t30.167 12.5zM331 245.667q17.667 0 30.167-12.5t12.5-30.167-12.667-30.333l-120.667-120.667q-12.667-12.667-30-12.667-17.667 0-30.167 12.5t-12.5 30.167q0 18 12.333 30.333l120.667 120.667q12.667 12.667 30.333 12.667zM85.333 426.667h170.667q17.667 0 30.167-12.5t12.5-30.167-12.5-30.167-30.167-12.5h-170.667q-17.667 0-30.167 12.5t-12.5 30.167 12.5 30.167 30.167 12.5zM512 170.667q17.667 0 30.167-12.5t12.5-30.167v-170.667q0-17.667-12.5-30.167t-30.167-12.5-30.167 12.5-12.5 30.167v170.667q0 17.667 12.5 30.167t30.167 12.5zM210.333 728.667q17.333 0 30-12.667l120.667-120.667q12.667-12.667 12.667-30 0-17.667-12.5-30.167t-30.167-12.5q-18 0-30.333 12.333l-120.667 120.667q-12.333 12.333-12.333 30.333 0 17.667 12.5 30.167t30.167 12.5zM768 426.667h170.667q17.667 0 30.167-12.5t12.5-30.167-12.5-30.167-30.167-12.5h-170.667q-17.667 0-30.167 12.5t-12.5 30.167 12.5 30.167 30.167 12.5zM512 853.333q17.667 0 30.167-12.5t12.5-30.167v-170.667q0-17.667-12.5-30.167t-30.167-12.5-30.167 12.5-12.5 30.167v170.667q0 17.667 12.5 30.167t30.167 12.5zM814 728.667q17.333 0 30-12.667t12.667-30q0-17.667-12.667-30.333l-120.667-120.667q-12.333-12.333-30-12.333-18.333 0-30.5 12.167t-12.167 30.5q0 17.667 12.333 30l120.667 120.667q12.667 12.667 30.333 12.667z" />
<glyph unicode="&#xe106;" glyph-name="bag" d="M512 896q43.333 0 82.833-17t68-45.5 45.5-68 17-82.833v-42.667h170.667v-640q0-53-37.5-90.5t-90.5-37.5h-512q-53 0-90.5 37.5t-37.5 90.5v640h170.667v42.667q0 43.333 17 82.833t45.5 68 68 45.5 82.833 17zM810.667 0v554.667h-597.333v-554.667q0-17.667 12.5-30.167t30.167-12.5h512q17.667 0 30.167 12.5t12.5 30.167zM512 810.667q-53 0-90.5-37.5t-37.5-90.5v-42.667h256v42.667q0 53-37.5 90.5t-90.5 37.5z" />
<glyph unicode="&#xe107;" glyph-name="ban" d="M512 853.333q95.667 0 182.5-37.167t149.667-100 100-149.667 37.167-182.5-37.167-182.5-100-149.667-149.667-100-182.5-37.167-182.5 37.167-149.667 100-100 149.667-37.167 182.5 37.167 182.5 100 149.667 149.667 100 182.5 37.167zM751.667 84l-539.667 539.667q-40-50.333-62-111.667t-22-128q0-78 30.5-149.167t81.833-122.5 122.5-81.833 149.167-30.5q67 0 128.333 21.833t111.333 62.167zM512 768q-67 0-128.333-21.833t-111.333-62.167l539.667-539.667q40.333 50 62.167 111.333t21.833 128.333q0 78-30.5 149.167t-81.833 122.5-122.5 81.833-149.167 30.5z" />
<glyph unicode="&#xe108;" glyph-name="flag" d="M298.667 853.333q35.333 0 76-8.833t78.333-21.333l75.333-25t78.333-21.333 76-8.833q36 0 71 4.333t59.667 10.667 44.167 12.667 29.167 10.667l9.333 4.333v-597.333q-3.333-1.667-10-4.5t-28.167-10.333-44.833-13-58.833-10.167-71.5-4.667q-35.333 0-76 8.833t-78.333 21.333l-75.333 25t-78.333 21.333-76 8.833q-63.667 0-128-14.333v-284.333q0-17.667-12.5-30.167t-30.167-12.5-30.167 12.5-12.5 30.167v853.333q3.333 1.667 10 4.5t28.167 10.333 44.833 13 58.833 10.167 71.5 4.667zM298.667 768q-65.333 0-128-17v-422.333q64 12.667 128 12.667 47.333 0 94.667-10.833t107.667-30.833q7.667-2.667 28.833-9.833t31-10.333 28.833-8.667 31.833-8 29.5-4.667 31.667-2.167q65.333 0 128 17v422.333q-64-12.667-128-12.667-47.333 0-94.667 10.833t-107.667 30.833q-7.667 2.667-28.833 9.833t-31 10.333-28.833 8.667-31.833 8-29.5 4.667-31.667 2.167z" />
<glyph unicode="&#xe109;" glyph-name="trash" d="M426.667 853.333h170.667q53 0 90.5-37.5t37.5-90.5v-42.667h170.667q17.667 0 30.167-12.5t12.5-30.167-12.5-30.167-30.167-12.5h-42.667v-512q0-53-37.5-90.5t-90.5-37.5h-426.667q-53 0-90.5 37.5t-37.5 90.5v512h-42.667q-17.667 0-30.167 12.5t-12.5 30.167 12.5 30.167 30.167 12.5h170.667v42.667q0 53 37.5 90.5t90.5 37.5zM768 85.333v512h-512v-512q0-17.667 12.5-30.167t30.167-12.5h426.667q17.667 0 30.167 12.5t12.5 30.167zM597.333 768h-170.667q-17.667 0-30.167-12.5t-12.5-30.167v-42.667h256v42.667q0 17.667-12.5 30.167t-30.167 12.5z" />
<glyph unicode="&#xe110;" glyph-name="expand" d="M725.333 853.333h128q53 0 90.5-37.5t37.5-90.5v-128q0-17.667-12.5-30.167t-30.167-12.5-30.167 12.5-12.5 30.167v128q0 17.667-12.5 30.167t-30.167 12.5h-128q-17.667 0-30.167 12.5t-12.5 30.167 12.5 30.167 30.167 12.5zM85.333 213.333q17.667 0 30.167-12.5t12.5-30.167v-128q0-17.667 12.5-30.167t30.167-12.5h128q17.667 0 30.167-12.5t12.5-30.167-12.5-30.167-30.167-12.5h-128q-53 0-90.5 37.5t-37.5 90.5v128q0 17.667 12.5 30.167t30.167 12.5zM170.667 853.333h128q17.667 0 30.167-12.5t12.5-30.167-12.5-30.167-30.167-12.5h-128q-17.667 0-30.167-12.5t-12.5-30.167v-128q0-17.667-12.5-30.167t-30.167-12.5-30.167 12.5-12.5 30.167v128q0 53 37.5 90.5t90.5 37.5zM938.667 213.333q17.667 0 30.167-12.5t12.5-30.167v-128q0-53-37.5-90.5t-90.5-37.5h-128q-17.667 0-30.167 12.5t-12.5 30.167 12.5 30.167 30.167 12.5h128q17.667 0 30.167 12.5t12.5 30.167v128q0 17.667 12.5 30.167t30.167 12.5z" />
<glyph unicode="&#xe111;" glyph-name="contract" d="M725.333 853.333q17.667 0 30.167-12.5t12.5-30.167v-128q0-17.667 12.5-30.167t30.167-12.5h128q17.667 0 30.167-12.5t12.5-30.167-12.5-30.167-30.167-12.5h-128q-53 0-90.5 37.5t-37.5 90.5v128q0 17.667 12.5 30.167t30.167 12.5zM85.333 213.333h128q53 0 90.5-37.5t37.5-90.5v-128q0-17.667-12.5-30.167t-30.167-12.5-30.167 12.5-12.5 30.167v128q0 17.667-12.5 30.167t-30.167 12.5h-128q-17.667 0-30.167 12.5t-12.5 30.167 12.5 30.167 30.167 12.5zM298.667 853.333q17.667 0 30.167-12.5t12.5-30.167v-128q0-53-37.5-90.5t-90.5-37.5h-128q-17.667 0-30.167 12.5t-12.5 30.167 12.5 30.167 30.167 12.5h128q17.667 0 30.167 12.5t12.5 30.167v128q0 17.667 12.5 30.167t30.167 12.5zM810.667 213.333h128q17.667 0 30.167-12.5t12.5-30.167-12.5-30.167-30.167-12.5h-128q-17.667 0-30.167-12.5t-12.5-30.167v-128q0-17.667-12.5-30.167t-30.167-12.5-30.167 12.5-12.5 30.167v128q0 53 37.5 90.5t90.5 37.5z" />
<glyph unicode="&#xe112;" glyph-name="maximize" d="M597.333 341.667q17.667 0 30.333-12.667l268.333-268.333v195.667q0 17.667 12.5 30.167t30.167 12.5 30.167-12.5 12.5-30.167v-298.667q0-17.667-12.667-30.333t-30.333-12.667h-298.667q-17.667 0-30.167 12.5t-12.5 30.167 12.5 30.167 30.167 12.5h195.667l-268.333 268.333q-12.333 13-12.333 30.333 0 17.667 12.5 30.333t30.167 12.667zM85.333 853.333h298.667q17.667 0 30.167-12.5t12.5-30.167-12.5-30.167-30.167-12.5h-195.667l268.333-268q12.667-12.667 12.667-30.333t-12.667-30.167-30.333-12.5q-17 0-30.333 12.333l-268 268.333v-195.667q0-17.667-12.5-30.167t-30.167-12.5-30.167 12.5-12.5 30.167v298.667q0 17.667 12.5 30.167t30.167 12.5z" />
<glyph unicode="&#xe113;" glyph-name="minimize" d="M85.333 853.333q18 0 30.333-12.333l268.333-268.333v195.667q0 17.667 12.5 30.167t30.167 12.5 30.167-12.5 12.5-30.167v-298.667q0-17.667-12.667-30.333t-30.333-12.667h-298.667q-17.667 0-30.167 12.5t-12.5 30.167 12.5 30.167 30.167 12.5h195.667l-268.333 268.333q-12.333 12.333-12.333 30.333 0 18.333 12.167 30.5t30.5 12.167zM597.667 341.333h298.667q17.667 0 30.167-12.5t12.5-30.167-12.5-30.167-30.167-12.5h-195.667l268-268.333q12.667-12.667 12.667-30.333t-12.5-30.167-30.167-12.5q-18 0-30.333 12.333l-268.333 268.333v-195.667q0-17.667-12.5-30.167t-30.167-12.5-30.167 12.5-12.5 30.167v298.667q0 17.667 12.667 30.333t30.333 12.667z" />
<glyph unicode="&#xe114;" glyph-name="plus" d="M512 810.667q17.667 0 30.167-12.5t12.5-30.167v-341.333h341.333q17.667 0 30.167-12.5t12.5-30.167-12.5-30.167-30.167-12.5h-341.333v-341.333q0-17.667-12.5-30.167t-30.167-12.5-30.167 12.5-12.5 30.167v341.333h-341.333q-17.667 0-30.167 12.5t-12.5 30.167 12.5 30.167 30.167 12.5h341.333v341.333q0 17.667 12.5 30.167t30.167 12.5z" />
<glyph unicode="&#xe115;" glyph-name="minus" d="M128 426.667h768q17.667 0 30.167-12.5t12.5-30.167-12.5-30.167-30.167-12.5h-768q-17.667 0-30.167 12.5t-12.5 30.167 12.5 30.167 30.167 12.5z" />
<glyph unicode="&#xe116;" glyph-name="check" d="M896 682.667q18.333 0 30.5-12.167t12.167-30.5q0-18-12.333-30.333l-512-512q-12.333-12.333-30.333-12.333t-30.333 12.333l-256 256q-12.333 12.333-12.333 30.333 0 18.333 12.167 30.5t30.5 12.167q18 0 30.333-12.333l225.667-226 481.667 482q12.333 12.333 30.333 12.333z" />
<glyph unicode="&#xe117;" glyph-name="cross" d="M810.667 725.333q18.333 0 30.5-12.167t12.167-30.5q0-18-12.333-30.333l-268.667-268.333 268.667-268.333q12.333-12.333 12.333-30.333 0-18.333-12.167-30.5t-30.5-12.167q-18 0-30.333 12.333l-268.333 268.667-268.333-268.667q-12.333-12.333-30.333-12.333-18.333 0-30.5 12.167t-12.167 30.5q0 18 12.333 30.333l268.667 268.333-268.667 268.333q-12.333 12.333-12.333 30.333 0 18.333 12.167 30.5t30.5 12.167q18 0 30.333-12.333l268.333-268.667 268.333 268.667q12.333 12.333 30.333 12.333z" />
<glyph unicode="&#xe118;" glyph-name="move" d="M512 896q18 0 30.333-12.333l150.667-151q12.667-12.667 12.667-30.333t-12.5-30.167-30.167-12.5-30.333 12.667l-78 78v-323.667h323.667l-78 78q-12.667 12.667-12.667 30.333t12.5 30.167 30.167 12.5 30.333-12.667l151-150.667q12.333-12.333 12.333-30.333t-12.333-30l-151-151q-12.667-12.667-30.333-12.667t-30.167 12.5-12.5 30.167 12.667 30.333l78 78h-323.667v-323.667l78 78q12.667 12.667 30.333 12.667t30.167-12.5 12.5-30.167-12.667-30.333l-150.667-151q-12.333-12.333-30.333-12.333-17.667 0-30 12.333l-151 151q-12.667 12.667-12.667 30.333t12.5 30.167 30.167 12.5 30.333-12.667l78-78v323.667h-323.667l78-78q12.667-12.667 12.667-30.333t-12.5-30.167-30.167-12.5-30.333 12.667l-151 150.667q-12.333 12.333-12.333 30.333t12.333 30.333l151 150.667q12.667 12.667 30.333 12.667t30.167-12.5 12.5-30.167-12.667-30.333l-78-78h323.667v323.667l-78-78q-12.667-12.667-30.333-12.667t-30.167 12.5-12.5 30.167 12.667 30.333l150.667 151q12.333 12.333 30.333 12.333z" />
<glyph unicode="&#xe119;" glyph-name="delete" d="M341.333 768h554.667q53 0 90.5-37.5t37.5-90.5v-512q0-53-37.5-90.5t-90.5-37.5h-554.667l-341.333 384zM896 682.667h-516.333l-265.333-298.667 265.333-298.667h516.333q17.667 0 30.167 12.5t12.5 30.167v512q0 17.667-12.5 30.167t-30.167 12.5zM810.667 512q0-18-12.333-30.333l-98-97.667 98-97.667q12.333-12.333 12.333-30.333 0-18.333-12.167-30.5t-30.5-12.167q-18 0-30.333 12.333l-97.667 98-97.667-98q-12.333-12.333-30.333-12.333-17.667 0-30.167 12.5t-12.5 30.167q0 17.333 12.333 30.333l98 97.667-98 97.667q-12.333 13-12.333 30.333 0 17.667 12.5 30.167t30.167 12.5q18 0 30.333-12.333l97.667-98 97.667 98q12.333 12.333 30.333 12.333 18.333 0 30.5-12.167t12.167-30.5z" />
<glyph unicode="&#xe120;" glyph-name="menu" d="M128 682.667h768q17.667 0 30.167-12.5t12.5-30.167-12.5-30.167-30.167-12.5h-768q-17.667 0-30.167 12.5t-12.5 30.167 12.5 30.167 30.167 12.5zM128 170.667h768q17.667 0 30.167-12.5t12.5-30.167-12.5-30.167-30.167-12.5h-768q-17.667 0-30.167 12.5t-12.5 30.167 12.5 30.167 30.167 12.5zM128 426.667h768q17.667 0 30.167-12.5t12.5-30.167-12.5-30.167-30.167-12.5h-768q-17.667 0-30.167 12.5t-12.5 30.167 12.5 30.167 30.167 12.5z" />
<glyph unicode="&#xe121;" glyph-name="archive" d="M256 768h512l256-256v-384q0-53-37.5-90.5t-90.5-37.5h-768q-53 0-90.5 37.5t-37.5 90.5v384zM938.667 128v298.667h-187.333q-28.333-74-94.5-122.333t-144.833-48.333q-52.333 0-101.667 22.333t-86 61.167-55 87.167h-184v-298.667q0-17.333 12.333-30t30.333-12.667h768q17.667 0 30.167 12.5t12.5 30.167zM903.333 512l-169 170.667h-443l-170.667-170.667h220.667q0-42.333 22.667-81.667t62.5-64.167 85.5-24.833 85.5 24.833 62.5 64.167 22.667 81.667h220.667z" />
<glyph unicode="&#xe122;" glyph-name="inbox" d="M512 853.333q17.667 0 30.167-12.5t12.5-30.167v-494.333l140.333 140.667q12.333 12.333 30.333 12.333 18.333 0 30.5-12.167t12.167-30.5q0-18-12.333-30.333l-213.333-213.333q-12.333-12.333-30.333-12.333t-30.333 12.333l-213.333 213.333q-12.333 13-12.333 30.333 0 17.667 12.5 30.167t30.167 12.5q18 0 30.333-12.333l140.333-140.667v494.333q0 17.667 12.5 30.167t30.167 12.5zM938.667 256q17.667 0 30.167-12.5t12.5-30.167v-170.667q0-53.333-37-90.333-37.667-37.667-90-37.667h-683.667q-52.333 0-90.667 37.333-37.333 38.333-37.333 90.667v170.667q0 17.667 12.5 30.167t30.167 12.5 30.167-12.5 12.5-30.167v-170.667q0-17.667 12.5-30.167t30.167-12.5h683.667q17.333 0 29.5 12.5t12.167 30.167v170.667q0 17.667 12.5 30.167t30.167 12.5z" />
<glyph unicode="&#xe123;" glyph-name="outbox" d="M512 851.333q18 0 30.333-12.333l213.333-213.333q12.333-12.333 12.333-30.333 0-18.333-12.167-30.5t-30.5-12.167q-18 0-30.333 12.333l-140.333 140.667v-494.333q0-17.667-12.5-30.167t-30.167-12.5-30.167 12.5-12.5 30.167v494.333l-140.333-140.667q-13-12.333-30.333-12.333-17.667 0-30.167 12.5t-12.5 30.167q0 17.333 12.333 30.333l213.333 213.333q12.333 12.333 30.333 12.333zM938.667 254q17.667 0 30.167-12.5t12.5-30.167v-170.667q0-53.333-37-90.333-37.667-37.667-90-37.667h-683.667q-52.333 0-90.667 37.333-37.333 38.333-37.333 90.667v170.667q0 17.667 12.5 30.167t30.167 12.5 30.167-12.5 12.5-30.167v-170.667q0-17.667 12.5-30.167t30.167-12.5h683.667q17.333 0 29.5 12.5t12.167 30.167v170.667q0 17.667 12.5 30.167t30.167 12.5z" />
<glyph unicode="&#xe124;" glyph-name="file" d="M213.333 896h426.667l298.667-298.667v-597.333q0-53-37.5-90.5t-90.5-37.5h-597.333q-53 0-90.5 37.5t-37.5 90.5v768q0 53 37.5 90.5t90.5 37.5zM554.667 512v298.667h-341.333q-18 0-30.333-12.333t-12.333-30.333v-768q0-18 12.333-30.333t30.333-12.333h597.333q18 0 30.333 12.333t12.333 30.333v512h-298.667zM818 597.333l-178 178v-178h178z" />
<glyph unicode="&#xe125;" glyph-name="file-add" d="M213.333 896h426.667l298.667-298.667v-597.333q0-53-37.5-90.5t-90.5-37.5h-597.333q-53 0-90.5 37.5t-37.5 90.5v768q0 53 37.5 90.5t90.5 37.5zM512 426.667q17.667 0 30.167-12.5t12.5-30.167v-85.333h85.333q17.667 0 30.167-12.5t12.5-30.167-12.5-30.167-30.167-12.5h-85.333v-85.333q0-17.667-12.5-30.167t-30.167-12.5-30.167 12.5-12.5 30.167v85.333h-85.333q-17.667 0-30.167 12.5t-12.5 30.167 12.5 30.167 30.167 12.5h85.333v85.333q0 17.667 12.5 30.167t30.167 12.5zM554.667 512v298.667h-341.333q-18 0-30.333-12.333t-12.333-30.333v-768q0-18 12.333-30.333t30.333-12.333h597.333q18 0 30.333 12.333t12.333 30.333v512h-298.667zM818 597.333l-178 178v-178h178z" />
<glyph unicode="&#xe126;" glyph-name="file-subtract" d="M213.333 896h426.667l298.667-298.667v-597.333q0-53-37.5-90.5t-90.5-37.5h-597.333q-53 0-90.5 37.5t-37.5 90.5v768q0 53 37.5 90.5t90.5 37.5zM384 298.667h256q17.667 0 30.167-12.5t12.5-30.167-12.5-30.167-30.167-12.5h-256q-17.667 0-30.167 12.5t-12.5 30.167 12.5 30.167 30.167 12.5zM554.667 512v298.667h-341.333q-18 0-30.333-12.333t-12.333-30.333v-768q0-18 12.333-30.333t30.333-12.333h597.333q18 0 30.333 12.333t12.333 30.333v512h-298.667zM818 597.333l-178 178v-178h178z" />
<glyph unicode="&#xe127;" glyph-name="help" d="M512 853.333q92 0 178.333-35t153.667-102.333 102.333-153.667 35-178.333-35-178.333-102.333-153.667-153.667-102.333-178.333-35-178.333 35-153.667 102.333-102.333 153.667-35 178.333 35 178.333 102.333 153.667 153.667 102.333 178.333 35zM334 501.667l-122 122q-41.333-51.667-62.667-113.333t-21.333-126.333 21.333-126.333 62.667-113.333l122 122q-35.333 53.333-35.333 117.667t35.333 117.667zM751.667 84l-122 122q-53.333-35.333-117.667-35.333t-117.667 35.333l-122-122q51.667-41.333 113.333-62.667t126.333-21.333 126.333 21.333 113.333 62.667zM512 512q-53 0-90.5-37.5t-37.5-90.5 37.5-90.5 90.5-37.5 90.5 37.5 37.5 90.5-37.5 90.5-90.5 37.5zM512 768q-64.667 0-126.333-21.333t-113.333-62.667l122-122q53.333 35.333 117.667 35.333t117.667-35.333l122 122q-51.667 41.333-113.333 62.667t-126.333 21.333zM812 623.667l-122-122q35.333-53.333 35.333-117.667t-35.333-117.667l122-122q41.333 51.667 62.667 113.333t21.333 126.333-21.333 126.333-62.667 113.333z" />
<glyph unicode="&#xe128;" glyph-name="open" d="M170.667 853.333h298.667q17.667 0 30.167-12.5t12.5-30.167-12.5-30.167-30.167-12.5h-298.667q-17.667 0-30.167-12.5t-12.5-30.167v-682.667q0-17.667 12.5-30.167t30.167-12.5h682.667q17.667 0 30.167 12.5t12.5 30.167v298.667q0 17.667 12.5 30.167t30.167 12.5 30.167-12.5 12.5-30.167v-298.667q0-53-37.5-90.5t-90.5-37.5h-682.667q-53 0-90.5 37.5t-37.5 90.5v682.667q0 53 37.5 90.5t90.5 37.5zM682.667 853.333h256q17.667 0 30.167-12.5t12.5-30.167v-256q0-17.667-12.5-30.167t-30.167-12.5-30.167 12.5-12.5 30.167v153l-354-354q-12.333-12.333-30-12.333-18.333 0-30.5 12.167t-12.167 30.5q0 17.667 12.333 30l354 354h-153q-17.667 0-30.167 12.5t-12.5 30.167 12.5 30.167 30.167 12.5z" />
<glyph unicode="&#xe129;" glyph-name="ellipsis" d="M853.333 512q53 0 90.5-37.5t37.5-90.5-37.5-90.5-90.5-37.5-90.5 37.5-37.5 90.5 37.5 90.5 90.5 37.5zM170.667 512q53 0 90.5-37.5t37.5-90.5-37.5-90.5-90.5-37.5-90.5 37.5-37.5 90.5 37.5 90.5 90.5 37.5zM170.667 426.667q-17.667 0-30.167-12.5t-12.5-30.167 12.5-30.167 30.167-12.5 30.167 12.5 12.5 30.167-12.5 30.167-30.167 12.5zM512 512q53 0 90.5-37.5t37.5-90.5-37.5-90.5-90.5-37.5-90.5 37.5-37.5 90.5 37.5 90.5 90.5 37.5zM512 426.667q-17.667 0-30.167-12.5t-12.5-30.167 12.5-30.167 30.167-12.5 30.167 12.5 12.5 30.167-12.5 30.167-30.167 12.5zM853.333 426.667q-17.667 0-30.167-12.5t-12.5-30.167 12.5-30.167 30.167-12.5 30.167 12.5 12.5 30.167-12.5 30.167-30.167 12.5z" />
<glyph unicode="&#xe600;" glyph-name="uniE600" d="M552 299l231 232q8 8 8 19.5t-8 19.5-19 8-19-8l-232-232-232 232q-8 8-19 8t-19-8-8-19.5 8-19.5l231-232-231-232q-8-8-8-19t8-19 19-8 19 8l232 231 232-231q8-8 19-8t19 8 8 19-8 19z" />
<glyph unicode="&#xe601;" glyph-name="uniE601" d="M287 301l435 434q6 7 15.5 7t16.5-7 7-16.5-7-15.5l-418-418 414-414q7-7 7-16.5t-6.5-16.5-16-7-16.5 7l-431 430q-6 7-6 16.5t6 16.5z" />
<glyph unicode="&#xe602;" glyph-name="uniE602" d="M754 301l-434 434q-7 7-16.5 7t-16-7-6.5-16.5 6-15.5l418-418-414-414q-7-7-7-16.5t7-16.5 16.5-7 16.5 7l430 430q7 7 7 16.5t-7 16.5z" />
<glyph unicode="&#xe603;" glyph-name="uniE603" d="M512 40l-279 279 46 45 233-233 233 233 46-45z" />
<glyph unicode="&#xe604;" glyph-name="uniE604" d="M894-7l-239 242q73 77 73 205t-86.5 217-212.5 89-215-90-89-216q0-127 88-213.5t214-86.5q115 0 188 57l241-244q7-6 16-6t20 11q7 7 8 17.5t-6 17.5zM173 443.5q0 105.5 74 180t178.5 74.5 178.5-74.5 74-180-74-180-178.5-74.5-178.5 74.5-74 180z" />
<glyph unicode="&#xe605;" glyph-name="uniE605" d="M576 672v64h-192v-64h-256v-128h704v128h-256zM192-32q0-53 37.5-90.5t90.5-37.5h320q53 0 90.5 37.5t37.5 90.5v512h-576v-512zM576 416h64v-448h-64v448zM448 416h64v-448h-64v448zM320 416h64v-448h-64v448z" />
<glyph unicode="&#xe606;" glyph-name="uniE606" d="M352 287.5q0-66.5 47-113t113.5-46.5 113 46.5 46.5 113-46.5 113.5-113 47-113.5-47-47-113.5z" />
<glyph unicode="&#xe607;" glyph-name="uniE607" d="M366 634l322-219q17-12 17-32.5t-17-31.5l-322-219q-16-10-31.5 0.5t-15.5 31.5v438q0 21 15.5 31.5t31.5 0.5z" />
<glyph unicode="&#xe608;" glyph-name="uniE608" d="M762 446l-219-322q-12-17-32.5-17t-31.5 17l-219 322q-10 16 0.5 31.5t31.5 15.5h438q21 0 31.5-15.5t0.5-31.5z" />
<glyph unicode="&#xe609;" glyph-name="uniE609" d="M0 684h43v-768h-43v768zM0 684h1024v-43h-1024v43zM981 641h43v-725h-43v725zM0-41h1024v-43h-1024v43zM85 513h384v-42h-384v42zM256 556h43v-213h-43v213zM171 471h42v-43h-42v43zM128 428h43v-43h-43v43zM85 385h43v-42h-43v42zM341 471h43v-43h-43v43zM384 428h43v-43h-43v43zM427 385h42v-42h-42v42zM128 343h43v-214h-43v214zM171 257h213v-42h-213v42zM384 343h43v-214h-43v214zM171 343h213v-43h-213v43zM171 172h213v-43h-213v43zM85 87h384v-43h-384v43zM512 556h43v-43h-43v43zM555 513h42v-42h-42v42zM597 471h43v-43h-43v43zM640 556h43v-85h-43v85zM683 513h256v-42h-256v42zM896 513h43v-426h-43v426zM811 87h85v-43h-85v43zM512 428h85v-43h-85v43zM555 428h42v-384h-42v384zM640 428h43v-341h-43v341zM640 172h213v-43h-213v43zM683 428h170v-43h-170v43zM811 428h42v-299h-42v299zM683 300h128v-43h-128v43z" />
<glyph unicode="&#xe60a;" glyph-name="uniE60A" d="M128 727h43v-854h-43v854zM43 1h938v-42h-938v42zM171 641h170v-128h-170v128zM427 641h213v-128h-213v128zM171 428h384v-128h-384v128zM640 428h299v-128h-299v128zM171 215h213v-128h-213v128zM469 215h256v-128h-256v128z" />
<glyph unicode="&#xe60b;" glyph-name="uniE60B" d="M299 513v-597h682v597h-682zM939-41h-598v426h598v-426zM43 727v-598h213v43h-171v427h598v-43h42v171h-682z" />
<glyph unicode="&#xe60c;" glyph-name="uniE60C" d="M784 748l-54-118-122-19 88-92-21-131 109 62 109-62-21 131 88 92-122 19zM192 280l-40-86-88-14 64-67-15-95 79 45 79-45-15 95 64 67-88 14zM391 19l-25-54-56-9 41-43-10-60 50 28 51-28-10 60 41 43-56 9zM176 546l84 90 84-90-84-90zM260 701l-149-159 149-159 494-531 149 159z" />
</font>
</defs>
</svg>
